<?xml version="1.0" standalone="no"?>
<!DOCTYPE svg PUBLIC "-//W3C//DTD SVG 20010904//EN"
 "http://www.w3.org/TR/2001/REC-SVG-20010904/DTD/svg10.dtd">
<svg version="1.0" xmlns="http://www.w3.org/2000/svg"
 width="2508.000000pt" height="2508.000000pt" viewBox="0 0 2508.000000 2508.000000"
 preserveAspectRatio="xMidYMid meet">
<metadata>
Created by potrace 1.14, written by Peter Selinger 2001-2017
</metadata>
<g transform="translate(0.000000,2508.000000) scale(0.100000,-0.100000)"
fill="#000000" stroke="none">
<path d="M13036 17733 c-4 -5 -17 -8 -29 -8 -17 0 -22 -6 -21 -26 1 -23 -3
-27 -27 -25 -15 1 -26 -2 -23 -6 3 -4 0 -8 -6 -8 -6 0 -8 -4 -5 -10 4 -6 -1
-7 -11 -3 -14 5 -16 3 -11 -12 7 -16 5 -16 -10 -4 -11 9 -14 10 -9 1 4 -7 0
-19 -10 -29 -16 -16 -16 -16 -10 5 5 13 3 22 -3 22 -6 0 -10 -3 -10 -7 3 -20
-2 -34 -11 -28 -5 3 -10 2 -10 -4 0 -5 6 -12 13 -15 6 -3 0 -3 -16 -1 -18 2
-25 0 -21 -7 5 -7 1 -9 -9 -5 -10 4 -16 2 -14 -6 1 -7 -3 -11 -10 -10 -7 2
-17 -6 -23 -18 -9 -15 -15 -18 -25 -9 -10 8 -15 8 -21 -1 -4 -7 -3 -9 4 -5 6
3 16 -2 21 -13 9 -16 8 -18 -11 -13 -16 4 -19 2 -13 -9 8 -12 6 -12 -8 0 -18
14 -24 2 -7 -15 7 -7 -1 -9 -26 -7 -34 2 -35 1 -18 -12 18 -13 17 -13 -9 -11
-23 3 -25 1 -15 -12 11 -13 11 -14 -1 -7 -11 6 -13 4 -8 -7 4 -12 1 -14 -15
-10 -15 4 -19 2 -13 -7 5 -10 2 -11 -13 -7 -13 5 -22 1 -26 -10 -5 -14 -4 -15
8 -5 9 8 16 8 20 2 4 -5 2 -12 -4 -16 -5 -3 -10 -3 -10 1 0 3 -6 2 -12 -3 -7
-6 -21 -9 -31 -8 -14 3 -16 0 -7 -10 8 -10 8 -15 -1 -21 -7 -4 -9 -3 -6 3 4 6
0 13 -8 17 -9 3 -19 -3 -25 -17 -10 -21 -10 -21 4 -3 14 18 15 18 13 -2 0 -12
-3 -19 -5 -17 -3 2 -14 0 -25 -6 -15 -9 -18 -8 -11 3 6 10 4 10 -10 -1 -11 -9
-15 -23 -12 -35 5 -19 4 -20 -8 -4 -7 10 -16 15 -19 11 -4 -3 -2 -12 3 -18 7
-9 4 -12 -13 -11 -12 1 -27 5 -34 9 -6 4 -15 2 -19 -4 -4 -7 -3 -9 4 -5 6 3
13 2 17 -4 4 -6 10 -8 15 -5 5 3 12 0 16 -6 4 -7 3 -9 -3 -6 -6 4 -16 0 -23
-8 -9 -11 -16 -12 -25 -5 -16 13 -24 3 -19 -25 3 -20 3 -20 -12 -1 -14 19 -14
19 -14 -3 0 -19 -3 -21 -14 -12 -11 9 -13 6 -11 -14 2 -14 -1 -23 -6 -19 -5 3
-7 9 -5 13 3 4 -1 8 -9 8 -8 0 -13 -5 -12 -11 1 -6 -4 -10 -11 -8 -8 1 -11 -2
-7 -7 3 -6 13 -7 23 -4 14 5 13 3 -3 -10 -10 -8 -31 -14 -46 -13 -15 1 -27 0
-25 -3 3 -7 -40 -50 -52 -52 -12 -2 -47 -29 -38 -29 5 0 18 7 28 17 10 9 18
11 18 6 0 -6 -7 -14 -16 -17 -8 -3 -12 -10 -9 -16 4 -6 -1 -7 -11 -3 -11 4
-15 2 -11 -4 4 -6 -3 -9 -17 -8 -13 2 -29 -2 -37 -7 -11 -8 -10 -9 4 -4 12 4
17 2 14 -6 -2 -7 -10 -12 -16 -11 -6 2 -11 -5 -11 -15 0 -14 -2 -15 -10 -2 -8
12 -10 11 -10 -7 0 -13 -5 -23 -11 -23 -5 0 -8 4 -5 9 4 5 -2 8 -11 7 -10 -2
-18 -11 -18 -21 0 -9 -11 -24 -25 -32 l-25 -15 25 22 25 22 -25 -15 c-14 -8
-24 -22 -24 -30 1 -10 -7 -14 -27 -12 -16 1 -26 -1 -24 -6 3 -4 -4 -10 -15
-14 -11 -4 -17 -11 -14 -17 4 -7 2 -8 -4 -4 -7 4 -12 2 -12 -5 0 -7 -3 -9 -6
-6 -4 4 1 19 11 34 l18 28 -24 -21 c-13 -11 -30 -19 -36 -18 -7 1 -17 2 -23 3
-5 0 -10 6 -10 12 0 5 4 8 8 5 5 -3 9 0 9 7 0 7 -8 13 -18 13 -10 0 -16 -4
-13 -7 2 -4 0 -10 -5 -13 -5 -3 -11 1 -15 9 -3 8 -11 15 -18 15 -10 0 -10 -2
0 -9 11 -7 11 -9 -1 -14 -19 -7 -60 30 -50 46 4 7 0 6 -10 -2 -19 -15 -23 -26
-5 -15 7 4 8 3 4 -5 -6 -8 -12 -9 -20 -2 -7 6 -17 7 -21 3 -5 -4 -5 -1 -1 6 4
7 13 9 19 6 7 -4 8 -3 4 1 -12 14 -37 15 -37 2 -1 -7 -7 -1 -14 12 -10 18 -15
20 -19 10 -3 -9 -8 -10 -14 -4 -11 13 -36 18 -28 5 3 -5 1 -10 -4 -10 -6 0
-11 7 -11 17 0 14 -3 14 -22 -3 -12 -10 -18 -13 -14 -6 4 7 1 12 -8 12 -9 0
-16 5 -16 11 0 6 -7 3 -16 -5 -19 -20 -31 -21 -15 -2 9 11 8 15 -4 20 -9 3
-13 10 -10 16 3 6 -1 7 -10 4 -14 -6 -14 -8 2 -20 17 -12 16 -13 -4 -7 -13 3
-23 9 -23 14 0 5 -7 9 -16 9 -8 0 -12 -5 -9 -11 4 -6 -2 -5 -14 2 -14 10 -17
15 -8 21 7 4 8 8 4 8 -4 0 -18 -7 -31 -16 -16 -10 -26 -12 -31 -5 -6 11 -5 12
17 15 6 0 13 8 15 16 4 13 3 13 -6 0 -6 -8 -11 -12 -11 -8 0 4 -11 3 -25 -2
-18 -7 -28 -5 -38 5 -8 8 -17 11 -21 8 -3 -4 -6 0 -7 8 0 8 -4 6 -9 -6 -8 -20
-9 -20 -9 1 -1 16 -8 21 -31 22 -20 0 -28 -3 -24 -10 4 -7 2 -8 -4 -4 -6 4 -9
12 -6 19 3 8 -5 13 -18 14 -17 2 -19 0 -8 -7 8 -5 12 -12 8 -15 -3 -3 -12 1
-21 9 -8 8 -18 12 -21 9 -12 -13 -33 -11 -33 3 0 11 3 11 16 1 14 -10 14 -10
4 4 -7 9 -9 20 -5 25 4 5 -4 0 -17 -11 -24 -20 -24 -20 -18 0 7 20 7 20 -8 1
-13 -17 -15 -17 -15 -4 0 9 -5 20 -12 24 -7 4 -8 3 -4 -4 5 -8 0 -12 -13 -12
-12 0 -21 5 -21 12 0 6 -3 8 -7 5 -3 -4 -12 -2 -20 5 -11 8 -12 7 -7 -5 3 -10
1 -15 -8 -13 -22 4 -56 29 -54 40 2 6 1 8 -1 4 -3 -5 -11 -8 -19 -8 -9 0 -13
4 -10 8 3 5 -5 7 -17 6 -12 -1 -22 -3 -22 -4 0 -1 -11 -3 -25 -6 -18 -3 -21
-2 -10 5 8 5 17 8 20 6 4 -2 7 2 7 9 0 11 -5 11 -25 0 -26 -13 -52 -9 -52 8 0
6 6 6 14 -1 11 -9 16 -9 22 0 4 7 3 9 -4 5 -6 -3 -14 -2 -17 4 -5 8 -12 7 -23
-2 -13 -11 -15 -10 -9 4 4 12 2 15 -8 12 -8 -3 -13 -11 -11 -17 1 -7 1 -9 -1
-4 -3 4 -9 5 -14 2 -5 -4 -6 2 -2 12 5 14 3 16 -7 6 -14 -13 -60 2 -60 21 0 6
-5 4 -10 -4 -9 -13 -10 -13 -10 0 0 13 -1 13 -10 0 -8 -13 -10 -13 -10 2 0 9
-5 20 -12 24 -7 4 -8 3 -4 -4 4 -7 1 -12 -9 -12 -10 0 -13 -5 -9 -12 4 -7 3
-8 -5 -4 -6 4 -9 12 -6 17 4 5 0 9 -7 9 -10 0 -9 3 2 11 13 9 13 10 0 6 -8 -2
-14 -11 -12 -21 2 -9 -2 -16 -8 -16 -6 0 -9 3 -7 8 2 4 -5 16 -16 26 -17 16
-19 16 -14 3 3 -9 1 -19 -5 -23 -7 -5 -8 -2 -3 6 5 8 3 11 -6 8 -8 -3 -13 -10
-12 -16 2 -6 -3 -9 -11 -6 -8 3 -17 0 -22 -7 -4 -7 -3 -10 2 -6 5 3 10 -3 10
-13 0 -15 -3 -17 -15 -7 -12 10 -13 9 -2 -10 6 -13 8 -24 4 -24 -4 -1 -12 -2
-18 -4 -5 -1 -14 -3 -19 -3 -5 -1 -4 -8 1 -14 17 -24 9 -43 -16 -40 -23 4 -23
3 -8 -13 22 -21 22 -28 -1 -16 -14 7 -18 6 -18 -9 0 -11 6 -16 16 -13 10 3 10
1 -3 -7 -9 -6 -23 -8 -30 -3 -6 4 -4 -6 7 -22 10 -17 13 -24 5 -17 -20 18 -33
15 -18 -5 7 -10 9 -15 4 -10 -4 4 -19 -3 -32 -15 -25 -23 -30 -38 -12 -38 5 0
8 4 5 9 -3 5 2 15 11 22 15 12 16 12 8 -6 -4 -11 -8 -28 -9 -37 0 -14 -3 -15
-15 -5 -12 10 -14 9 -8 -6 4 -10 3 -16 -2 -13 -5 3 -14 -1 -21 -9 -11 -13 -10
-14 1 -10 10 4 15 -1 15 -14 0 -16 -3 -18 -15 -8 -12 10 -14 9 -8 -5 5 -14 1
-18 -16 -18 -12 0 -17 -4 -12 -8 6 -4 10 -13 9 -19 -1 -7 -2 -17 -3 -23 0 -5
-6 -10 -12 -10 -8 0 -8 4 0 14 9 10 7 16 -6 27 -15 11 -16 11 -6 -1 10 -11 9
-19 -10 -39 -12 -13 -17 -22 -12 -18 6 3 17 -3 24 -15 7 -11 8 -17 2 -14 -5 4
-12 2 -16 -4 -4 -6 -10 -8 -15 -5 -5 3 -12 0 -16 -6 -4 -8 -3 -9 4 -5 7 4 12
2 12 -3 0 -6 -5 -11 -11 -11 -6 0 -9 -7 -5 -15 3 -9 -3 -19 -14 -25 -13 -7
-17 -16 -13 -28 6 -15 5 -16 -12 -2 -17 14 -18 14 -6 -8 12 -22 11 -23 -7 -18
-12 4 -24 2 -28 -5 -4 -8 -3 -9 4 -5 22 13 37 -6 17 -21 -11 -7 -15 -13 -9
-13 5 -1 -2 -7 -16 -16 l-25 -15 25 6 c18 4 21 3 11 -3 -8 -6 -10 -15 -5 -23
6 -12 5 -12 -9 0 -15 12 -17 11 -17 -12 0 -14 -5 -29 -12 -33 -7 -5 -8 -3 -3
6 5 8 4 11 -3 6 -6 -3 -9 -19 -6 -34 3 -17 1 -22 -4 -14 -7 10 -12 9 -23 -4
-8 -10 -9 -15 -3 -11 7 4 14 0 17 -8 4 -10 1 -12 -10 -8 -13 5 -15 2 -10 -11
4 -11 3 -15 -4 -10 -8 4 -9 -1 -4 -17 l8 -24 -19 20 c-11 12 -15 15 -11 8 5
-6 6 -22 2 -34 -5 -16 -4 -19 5 -14 9 5 11 4 6 -4 -6 -8 -12 -9 -20 -2 -7 6
-16 8 -19 4 -4 -3 1 -12 11 -20 9 -7 13 -13 7 -12 -5 1 -19 1 -30 0 -18 -1
-19 -2 -2 -12 9 -5 17 -15 17 -22 0 -8 -3 -8 -8 -2 -4 6 -13 11 -21 13 -12 3
-12 0 -1 -13 7 -8 10 -18 6 -22 -3 -3 -6 -1 -6 5 0 21 -16 13 -17 -8 -1 -11 2
-18 7 -15 11 7 7 -22 -5 -32 -4 -4 -5 -2 -1 5 4 6 3 12 -3 12 -6 0 -15 -9 -21
-20 -9 -16 -8 -19 7 -14 17 5 17 5 0 -6 -14 -9 -22 -9 -34 2 -14 11 -13 8 2
-15 15 -24 16 -27 1 -21 -9 3 -16 1 -16 -5 0 -6 8 -11 18 -12 12 0 11 -3 -7
-10 -16 -6 -21 -14 -17 -25 5 -14 4 -15 -8 -5 -11 9 -16 9 -22 0 -4 -8 -3 -9
4 -5 7 4 12 1 12 -9 0 -10 5 -13 12 -9 7 4 8 3 4 -5 -5 -8 -12 -9 -20 -2 -8 7
-17 6 -26 -1 -12 -8 -12 -9 3 -4 9 3 17 1 17 -4 0 -6 -4 -10 -9 -10 -5 0 -8
-6 -7 -12 0 -7 -3 -14 -8 -15 -5 -1 -13 -7 -17 -15 -7 -10 -9 -10 -9 0 0 7 -4
11 -10 7 -5 -3 -7 -13 -4 -23 4 -10 3 -13 -3 -6 -4 6 -16 10 -26 8 -9 -1 -15
2 -11 7 3 5 10 7 15 4 5 -3 6 1 3 9 -5 13 -10 11 -26 -9 -20 -26 -38 -33 -38
-14 0 5 4 8 8 5 5 -3 9 1 9 9 0 11 -4 12 -13 4 -7 -6 -19 -7 -26 -3 -9 6 -9 3
1 -10 12 -15 12 -17 0 -14 -8 2 -17 8 -21 13 -5 6 -8 5 -8 -2 0 -7 -7 -13 -15
-13 -8 0 -15 5 -15 11 0 5 -5 7 -10 4 -6 -4 -8 -10 -5 -15 3 -5 0 -12 -6 -16
-8 -4 -9 -3 -5 4 4 7 2 12 -4 12 -6 0 -8 5 -4 12 4 7 3 8 -5 4 -6 -4 -9 -11
-6 -16 3 -5 1 -11 -5 -15 -5 -3 -10 1 -10 10 0 9 -4 14 -10 10 -5 -3 -7 -12
-4 -19 3 -8 1 -17 -5 -21 -7 -3 -8 0 -5 9 4 9 1 16 -6 16 -9 0 -9 4 1 18 13
15 12 16 -3 4 -9 -8 -15 -19 -12 -27 3 -7 0 -16 -7 -21 -7 -4 -10 -3 -6 2 3 6
2 16 -4 24 -6 10 -9 11 -9 3 0 -8 -14 -13 -36 -13 -19 0 -33 -4 -30 -9 3 -4
-9 -6 -27 -4 -62 8 -106 10 -105 4 2 -20 -5 -22 -25 -8 -19 12 -24 13 -24 2 0
-8 4 -12 9 -9 15 10 8 -2 -14 -20 -13 -12 -19 -13 -16 -5 4 11 -6 14 -42 14
-34 0 -46 -4 -43 -12 3 -7 0 -13 -6 -13 -6 0 -11 5 -11 10 0 6 -9 10 -21 10
-11 0 -17 -4 -14 -10 4 -6 -1 -7 -11 -3 -13 5 -15 3 -9 -7 5 -8 4 -11 -3 -6
-6 3 -13 2 -17 -4 -8 -13 -25 -13 -25 0 0 5 3 9 8 7 4 -1 8 2 10 7 1 6 -5 11
-14 12 -9 1 -13 0 -10 -3 8 -8 -13 -33 -27 -33 -7 0 -7 4 1 12 7 7 12 17 12
22 0 7 -3 8 -8 1 -12 -16 -47 -41 -38 -28 5 9 2 11 -8 7 -9 -3 -13 -10 -10
-15 3 -5 -6 -5 -20 1 -19 7 -26 6 -26 -3 -1 -7 -6 -5 -14 5 -12 16 -13 16 -26
-2 -8 -10 -18 -17 -22 -14 -5 3 -3 13 4 22 11 14 9 14 -8 -1 -11 -9 -24 -14
-29 -10 -4 5 -5 2 -1 -4 4 -8 1 -13 -8 -13 -8 0 -16 -5 -18 -12 -3 -7 -7 -5
-11 6 -4 9 -3 15 2 11 5 -3 12 -1 15 4 9 14 -18 7 -47 -12 -28 -18 -36 -11
-14 13 10 12 9 12 -4 2 -9 -6 -18 -9 -22 -6 -3 3 -3 -5 -1 -18 5 -20 4 -21 -6
-5 -6 9 -16 15 -21 12 -5 -4 -6 -11 -3 -17 4 -7 2 -8 -5 -4 -6 4 -20 2 -29 -5
-13 -11 -12 -8 2 9 11 12 14 22 8 22 -6 0 -14 -5 -17 -10 -3 -6 -17 -7 -31 -4
-26 7 -31 -5 -12 -24 8 -8 9 -12 1 -12 -6 0 -13 5 -15 12 -5 14 -45 21 -53 8
-3 -5 0 -7 8 -4 8 3 18 1 22 -5 4 -7 0 -8 -11 -4 -13 5 -15 3 -9 -8 7 -11 6
-12 -6 -3 -15 12 -49 15 -49 4 0 -4 -7 -7 -15 -7 -8 0 -12 4 -9 9 3 4 0 8 -6
8 -6 0 -13 -7 -16 -15 -6 -14 -8 -13 -19 1 -11 16 -13 16 -23 -2 -7 -11 -12
-13 -12 -6 0 7 -4 10 -10 7 -5 -3 -10 -2 -10 3 0 5 -7 9 -15 9 -11 0 -12 -4
-4 -13 7 -8 7 -14 -1 -19 -6 -3 -8 -10 -6 -14 3 -4 -1 -8 -9 -8 -12 0 -12 3
-2 16 10 12 9 13 -2 6 -11 -6 -13 -4 -8 9 4 11 3 15 -4 11 -6 -4 -8 -13 -5
-21 3 -8 -1 -17 -9 -20 -8 -4 -15 -11 -15 -17 0 -6 3 -7 7 -4 9 10 33 -13 32
-32 0 -12 -2 -11 -9 4 -8 18 -9 18 -9 -5 -1 -14 -6 -32 -11 -40 -6 -10 -4 -21
8 -34 16 -18 16 -19 -2 -12 -15 5 -17 4 -8 -7 7 -8 9 -16 6 -20 -3 -3 -7 -17
-8 -31 -3 -24 4 -31 27 -27 5 1 5 -3 2 -9 -4 -6 -14 -9 -22 -5 -12 4 -13 2 -5
-8 9 -10 8 -17 -1 -27 -9 -10 -9 -11 1 -6 6 4 12 3 12 -1 0 -5 -6 -15 -12 -22
-11 -11 -9 -12 11 -6 21 6 22 5 10 -8 -8 -8 -17 -13 -20 -11 -3 2 -6 -4 -6
-12 0 -9 6 -13 16 -9 11 4 10 1 -4 -15 -10 -11 -13 -20 -7 -20 5 0 8 -9 4 -22
-4 -16 -2 -19 8 -13 9 5 11 4 6 -4 -4 -6 -12 -9 -17 -6 -5 4 -9 1 -9 -4 0 -6
6 -11 13 -12 6 -1 1 -5 -13 -9 l-25 -8 25 -1 c20 -1 22 -3 10 -11 -8 -5 -10
-10 -4 -10 6 0 10 -10 9 -22 -1 -13 -3 -29 -4 -36 0 -7 -5 -11 -10 -7 -5 3
-13 1 -16 -5 -4 -6 -3 -10 2 -9 20 3 27 -2 13 -11 -13 -8 -12 -10 3 -10 10 0
15 -5 12 -10 -4 -6 -11 -7 -17 -4 -7 4 -7 0 0 -12 6 -11 8 -32 5 -48 -4 -20
-2 -27 6 -22 8 5 8 0 -1 -19 -9 -21 -9 -31 0 -46 9 -14 9 -19 1 -19 -8 0 -7
-6 2 -17 12 -14 10 -14 -14 2 -23 14 -26 15 -21 2 3 -8 12 -18 19 -21 9 -3 12
-15 9 -31 -3 -19 -1 -24 7 -19 8 4 9 3 5 -4 -5 -9 -13 -9 -27 -2 -13 7 -19 7
-19 0 0 -5 5 -10 10 -10 15 0 12 -16 -5 -33 -13 -13 -13 -16 0 -21 8 -3 14 -2
14 2 -3 19 2 32 12 32 8 0 8 -4 2 -12 -6 -7 -9 -23 -8 -35 1 -16 -2 -20 -10
-13 -8 7 -11 0 -9 -25 2 -19 -1 -37 -6 -40 -6 -4 -6 -14 1 -26 6 -11 8 -26 6
-34 -3 -7 0 -18 6 -25 10 -10 8 -11 -7 -6 -20 7 -20 7 0 -15 10 -12 14 -19 7
-16 -13 8 -22 -11 -15 -35 2 -10 9 -15 16 -11 7 4 7 1 -1 -8 -9 -11 -9 -19 -2
-26 8 -8 7 -13 -2 -18 -8 -6 -10 -4 -4 6 5 8 4 10 0 6 -13 -11 -15 -38 -2 -30
6 4 8 0 4 -9 -3 -9 0 -21 6 -28 10 -10 8 -10 -8 -2 -17 9 -21 7 -21 -8 0 -12
5 -16 16 -12 13 5 13 3 1 -11 -7 -9 -10 -17 -5 -17 5 0 2 -5 -6 -11 -13 -9
-13 -10 0 -6 8 2 14 10 12 16 -1 7 2 10 8 6 8 -5 8 -11 1 -19 -6 -7 -7 -17 -3
-21 4 -5 3 -6 -3 -3 -5 3 -15 0 -22 -7 -9 -10 -9 -15 -1 -17 7 -3 5 -10 -5
-20 -9 -8 -14 -18 -12 -20 2 -2 -10 -12 -27 -22 -17 -11 -28 -14 -24 -8 3 6 1
14 -5 18 -8 4 -9 3 -5 -4 4 -7 2 -12 -3 -12 -22 0 -26 -2 -42 -16 -9 -8 -19
-11 -24 -7 -4 5 -5 2 -1 -4 4 -8 1 -13 -8 -13 -8 0 -21 -6 -28 -13 -7 -7 -22
-19 -33 -26 -19 -11 -19 -12 3 -6 12 4 22 3 22 -2 0 -5 -8 -9 -18 -10 -9 -1
-24 -3 -32 -5 -8 -2 -14 3 -13 10 2 6 -2 12 -7 12 -15 0 -12 -16 6 -34 18 -18
11 -21 -16 -6 -15 8 -22 5 -35 -12 -13 -20 -17 -21 -26 -8 -7 11 -8 7 -3 -15
3 -16 2 -25 -3 -20 -4 6 -18 11 -29 11 -17 1 -21 -4 -19 -22 2 -20 0 -22 -18
-13 -13 7 -17 8 -13 1 3 -6 -3 -13 -14 -17 -12 -4 -17 -11 -13 -18 4 -8 1 -7
-9 1 -12 9 -18 10 -23 2 -5 -8 -12 -7 -23 2 -15 12 -16 11 -3 -4 7 -10 16 -16
20 -14 4 3 13 0 21 -5 11 -6 5 -8 -18 -4 -24 4 -32 2 -26 -6 5 -9 1 -10 -15
-6 -19 5 -20 3 -9 -10 12 -15 10 -15 -12 -3 -22 12 -24 12 -12 -3 11 -13 10
-15 -7 -10 -13 3 -21 1 -21 -6 0 -7 -5 -9 -12 -5 -10 6 -10 4 0 -8 11 -14 10
-16 -9 -11 -17 5 -20 3 -14 -8 7 -11 6 -12 -7 -2 -15 13 -28 8 -28 -11 0 -6 5
-4 10 4 6 9 10 10 10 3 0 -20 -18 -24 -34 -7 -9 8 -16 12 -16 7 0 -5 5 -14 12
-21 9 -9 6 -11 -11 -7 -14 2 -19 0 -15 -7 5 -7 1 -9 -9 -5 -10 3 -17 2 -17 -3
0 -6 -3 -9 -7 -8 -17 4 -63 -26 -63 -41 0 -14 -2 -14 -10 -1 -8 13 -10 13 -10
-2 0 -9 6 -19 13 -22 6 -3 0 -3 -15 -1 -15 2 -33 7 -40 11 -7 4 -4 -3 7 -16
l20 -23 -22 12 c-20 10 -23 9 -23 -9 0 -11 -5 -20 -11 -20 -5 0 -8 4 -4 9 3 5
0 13 -6 17 -7 4 -9 3 -5 -4 6 -10 -30 -28 -47 -24 -5 1 -6 -2 -2 -8 4 -7 13
-6 28 2 17 9 15 4 -8 -20 -17 -18 -32 -32 -34 -32 -3 0 0 5 7 12 17 17 15 28
-4 28 -8 0 -12 -4 -9 -10 3 -5 -1 -10 -10 -10 -11 0 -15 -5 -12 -14 4 -10 1
-13 -8 -9 -8 3 -12 10 -8 16 4 6 1 7 -6 3 -7 -5 -10 -14 -7 -22 3 -8 2 -14 -2
-14 -4 0 -23 -10 -42 -22 -19 -12 -37 -23 -40 -23 -21 -6 -39 -18 -35 -24 4
-8 -5 -10 -56 -13 -29 -2 -30 -3 -13 -15 18 -13 17 -14 -8 -9 -20 3 -25 1 -22
-9 4 -10 -1 -12 -18 -8 -18 4 -20 3 -8 -6 13 -9 12 -11 -5 -12 -11 -1 -24 -1
-30 1 -5 1 -4 -4 3 -11 15 -16 16 -33 0 -23 -7 4 -8 3 -4 -5 6 -9 11 -9 22 0
12 10 13 8 6 -12 -7 -18 -4 -27 12 -42 12 -10 16 -16 9 -13 -6 4 -15 2 -18 -4
-4 -6 -3 -10 2 -9 32 6 44 -24 18 -44 -5 -4 2 -6 16 -3 21 3 25 0 24 -17 -1
-12 7 -28 17 -35 23 -17 15 -32 -14 -27 -11 3 -17 1 -14 -3 4 -4 13 -7 19 -7
7 -1 11 -6 9 -13 -2 -11 11 -16 31 -13 5 1 6 -3 2 -8 -3 -6 -11 -9 -18 -7 -7
1 -9 1 -4 -1 4 -3 4 -9 1 -15 -4 -6 1 -6 14 1 17 9 19 8 15 -9 -3 -11 -9 -17
-14 -14 -16 9 -10 -3 8 -17 14 -12 16 -12 8 0 -5 10 -4 12 4 7 8 -6 9 -12 2
-20 -8 -9 -6 -18 5 -32 14 -18 14 -18 4 6 -10 24 -10 24 4 6 13 -16 13 -22 3
-35 -10 -12 -9 -13 2 -6 11 6 13 4 8 -9 -4 -10 -1 -19 9 -23 9 -3 14 -13 11
-24 -6 -22 3 -24 23 -6 9 7 7 2 -3 -15 -11 -17 -13 -29 -7 -33 6 -4 8 -11 5
-16 -4 -5 -1 -9 5 -9 7 0 10 7 7 15 -4 8 -1 17 5 21 6 4 8 3 5 -3 -3 -5 1 -22
9 -37 18 -36 18 -45 -1 -20 -14 18 -14 18 -8 -3 3 -13 9 -23 14 -23 5 0 9 -5
9 -11 0 -6 8 -18 18 -27 10 -10 13 -14 7 -10 -22 14 -9 -31 15 -52 13 -11 19
-20 14 -20 -6 0 -15 5 -20 10 -7 7 -11 6 -11 -4 0 -8 3 -15 6 -14 3 0 13 0 21
-1 13 -1 13 -2 0 -11 -13 -8 -13 -10 2 -10 9 0 20 -4 23 -10 4 -6 -1 -7 -12
-4 -17 5 -17 5 -1 -9 17 -13 16 -15 -5 -26 -18 -9 -19 -10 -2 -6 11 2 27 0 35
-5 12 -8 12 -10 1 -10 -8 0 -4 -7 9 -18 20 -16 21 -21 10 -43 -12 -21 -12 -23
2 -11 13 10 18 10 24 1 4 -8 3 -9 -4 -5 -8 5 -12 0 -12 -13 0 -12 7 -21 15
-21 8 0 15 -5 15 -11 0 -5 -4 -8 -9 -4 -14 8 -20 -7 -10 -30 7 -19 8 -19 8 -1
1 15 4 16 16 6 12 -10 13 -16 4 -26 -9 -11 -8 -14 5 -14 10 0 16 -9 16 -25 0
-14 3 -25 8 -25 15 0 30 -48 19 -59 -8 -8 -6 -11 7 -11 9 0 14 -4 11 -10 -3
-5 -2 -10 3 -10 11 0 35 -50 27 -58 -3 -3 -5 -1 -5 4 0 6 -7 19 -16 30 -14 18
-15 18 -4 -4 6 -12 8 -28 4 -34 -4 -6 -3 -9 2 -5 5 3 18 -2 29 -10 16 -12 16
-14 3 -10 -10 3 -20 1 -24 -5 -4 -7 -3 -8 4 -4 7 4 12 2 12 -4 0 -6 5 -8 10
-5 6 3 10 -1 10 -10 0 -10 -5 -13 -12 -9 -10 6 -10 4 0 -8 7 -9 11 -21 10 -28
-2 -7 4 -15 12 -17 12 -3 12 -2 2 5 -10 7 -10 11 2 21 11 9 16 9 22 0 4 -8 3
-9 -4 -5 -16 10 -15 -7 1 -23 8 -8 8 -11 1 -9 -7 2 -12 -1 -12 -6 0 -5 -4 -12
-9 -15 -5 -3 -20 -22 -33 -41 -13 -19 -29 -39 -35 -43 -5 -5 1 -5 15 -2 24 7
24 7 5 -8 -11 -8 -24 -13 -30 -10 -5 2 -1 -3 10 -12 20 -16 19 -16 -6 -12 -21
4 -25 1 -24 -16 3 -25 -13 -49 -26 -41 -11 6 -12 -18 -1 -32 4 -5 -1 0 -12 11
-19 20 -19 20 -12 -3 5 -15 3 -24 -8 -28 -9 -3 -16 -13 -16 -21 0 -8 -5 -11
-11 -7 -8 5 -10 -1 -7 -20 4 -21 3 -24 -8 -15 -11 9 -14 7 -14 -11 0 -16 -4
-21 -16 -16 -13 5 -14 3 -6 -7 6 -7 7 -19 3 -26 -6 -10 -10 -9 -14 3 -4 9 -12
16 -19 16 -10 0 -10 -2 0 -9 10 -6 10 -10 -3 -21 -14 -12 -14 -15 0 -30 13
-14 13 -17 0 -17 -8 0 -12 4 -9 9 3 4 0 8 -5 8 -6 0 -11 -9 -11 -20 0 -12 -7
-20 -16 -20 -14 0 -15 -2 -3 -17 10 -11 10 -14 2 -9 -7 4 -13 2 -13 -3 0 -6
-5 -11 -11 -11 -5 0 -7 5 -3 12 4 6 3 8 -4 5 -11 -8 -11 -25 1 -44 6 -9 3 -11
-7 -7 -11 4 -19 -2 -26 -20 -5 -14 -14 -26 -19 -26 -6 0 -15 -10 -21 -22 -11
-22 -10 -22 4 -4 9 11 16 15 16 9 0 -6 -7 -16 -15 -23 -8 -7 -12 -16 -9 -21 3
-5 -1 -6 -9 -3 -8 3 -18 0 -23 -7 -4 -7 -3 -10 3 -6 5 3 10 0 10 -7 0 -8 -6
-12 -14 -9 -7 3 -13 -2 -13 -11 0 -9 -5 -16 -11 -16 -5 0 -8 -4 -5 -9 3 -4 -8
-21 -24 -37 -16 -16 -30 -35 -30 -41 0 -7 -5 -13 -11 -13 -5 0 -7 6 -3 13 6 9
4 9 -8 -1 -9 -7 -15 -25 -14 -41 1 -20 -2 -27 -11 -24 -7 3 -10 10 -6 16 3 5
2 7 -4 4 -5 -3 -8 -19 -7 -36 1 -19 -5 -36 -17 -47 -10 -9 -19 -12 -19 -6 0 6
6 13 13 15 9 4 9 6 0 6 -7 1 -17 -8 -23 -19 -6 -11 -15 -18 -20 -15 -10 6 -8
-15 4 -34 7 -10 6 -12 -4 -6 -10 6 -12 4 -7 -9 4 -9 3 -15 -2 -12 -5 3 -20 -5
-34 -18 -20 -18 -23 -27 -14 -42 10 -18 9 -18 -13 1 l-23 20 18 -28 c10 -15
14 -27 9 -26 -5 1 -15 1 -23 0 -11 -1 -11 -4 0 -18 13 -15 12 -15 -10 -4 -13
7 -21 8 -17 3 3 -6 2 -13 -4 -17 -5 -3 -10 -11 -10 -16 0 -6 6 -7 13 -3 8 5 8
2 -2 -9 -16 -20 -25 -23 -15 -4 5 9 3 9 -7 -1 -11 -11 -12 -14 -1 -21 11 -7
11 -9 -1 -14 -8 -3 -21 0 -28 6 -8 7 -11 8 -7 3 4 -5 3 -18 -3 -29 -8 -14 -8
-18 0 -13 6 4 11 3 11 -3 0 -11 39 -27 55 -22 6 1 4 -3 -2 -10 -7 -7 -13 -18
-13 -23 0 -6 4 -5 9 3 7 11 10 9 16 -8 6 -19 9 -20 23 -9 14 11 15 10 9 -6 -6
-15 -5 -17 7 -7 11 9 14 8 12 -6 0 -11 5 -18 16 -17 11 1 14 -4 11 -14 -4 -10
-2 -13 5 -8 7 4 12 1 12 -9 0 -10 5 -13 13 -9 9 6 9 4 -1 -8 -10 -13 -10 -18
-1 -24 8 -4 9 -3 5 4 -4 7 -1 12 9 12 10 0 13 -5 9 -12 -5 -8 -2 -9 10 -5 9 4
14 3 11 -2 -3 -5 0 -13 6 -16 5 -4 8 -13 6 -19 -3 -7 1 -13 8 -13 7 0 11 7 8
16 -2 9 2 5 10 -9 9 -14 13 -28 11 -32 -3 -5 0 -8 5 -8 6 0 11 5 11 10 0 6 5
10 10 10 7 0 7 -7 -1 -21 -6 -13 -7 -19 -1 -15 6 3 17 -1 25 -9 9 -8 23 -15
31 -15 9 0 16 -4 16 -9 0 -5 -10 -7 -23 -5 -20 4 -20 4 -2 -4 10 -5 30 -8 42
-6 13 1 21 -2 18 -6 -3 -5 -1 -11 3 -14 5 -3 8 -16 7 -29 -2 -15 2 -24 11 -24
9 0 10 4 4 12 -5 6 -5 16 1 25 8 12 9 11 7 -5 -2 -15 2 -19 17 -18 11 1 14 0
8 -3 -18 -8 -16 -34 3 -34 9 0 12 -5 8 -12 -6 -10 -4 -10 7 0 7 6 18 12 24 12
6 0 7 -3 0 -8 -6 -4 5 -23 28 -46 24 -25 35 -32 32 -20 -6 18 -6 18 6 -1 8
-11 14 -23 15 -27 1 -5 2 -11 3 -15 1 -5 6 -1 11 7 8 12 10 12 10 -5 1 -20 32
-65 46 -65 4 0 -2 11 -14 23 -17 18 -19 24 -8 24 8 0 13 -3 11 -7 -7 -11 31
-41 40 -33 5 5 3 0 -4 -9 -12 -15 -11 -18 3 -18 9 0 16 5 16 12 0 6 3 8 7 4 5
-4 -1 -15 -12 -23 -16 -12 -16 -14 -3 -10 10 3 20 2 23 -4 4 -5 12 -7 18 -3 7
3 3 -2 -8 -12 -17 -14 -17 -16 -2 -11 27 10 45 -2 42 -29 -2 -18 1 -22 10 -14
9 8 15 7 19 -2 5 -10 7 -10 12 0 3 6 10 12 16 12 7 0 7 -4 0 -13 -11 -13 -11
-48 1 -47 4 0 10 0 13 0 4 0 0 8 -7 18 -13 15 -12 16 4 3 9 -7 17 -20 17 -27
0 -8 5 -14 11 -14 5 0 7 -6 3 -12 -6 -10 -5 -10 7 -1 10 8 19 9 29 1 13 -8 13
-9 -1 -5 -9 3 -16 -1 -16 -7 0 -7 10 -12 23 -10 14 1 22 -3 21 -9 -1 -7 3 -11
10 -10 7 2 10 -3 7 -11 -3 -8 0 -17 7 -22 8 -5 10 -3 4 7 -6 11 -5 12 5 2 11
-10 11 -15 0 -30 -12 -15 -12 -16 0 -5 21 18 33 15 27 -9 -4 -16 -3 -18 8 -9
9 8 14 6 19 -6 3 -9 3 -21 -1 -26 -4 -7 -1 -8 6 -4 7 5 10 14 7 22 -10 25 3
15 18 -15 9 -16 13 -31 11 -33 -9 -9 30 -5 41 3 7 6 10 0 9 -19 -1 -15 2 -36
7 -47 9 -20 9 -20 -6 -1 -22 27 -20 7 1 -24 l17 -25 -29 19 c-24 16 -27 16
-16 3 7 -9 9 -17 4 -17 -5 0 -9 -9 -10 -20 -1 -11 3 -20 8 -20 6 0 8 4 5 8 -2
4 0 14 6 22 8 12 9 11 4 -4 -5 -14 -3 -17 11 -12 15 6 15 4 -2 -12 -11 -11
-24 -19 -29 -18 -5 0 -10 -5 -11 -12 -2 -7 -1 -8 2 -2 2 5 9 8 14 5 5 -4 1
-18 -9 -33 -9 -14 -11 -23 -4 -19 8 5 12 2 12 -8 0 -10 -5 -14 -12 -10 -7 4
-6 0 3 -7 13 -11 14 -16 4 -25 -7 -7 -16 -9 -19 -5 -4 3 -4 -2 0 -12 5 -12 4
-17 -3 -13 -5 3 -10 0 -10 -8 0 -20 14 -19 26 3 6 9 11 12 11 5 0 -6 -5 -15
-10 -18 -6 -4 -8 -10 -5 -15 3 -5 1 -11 -5 -15 -6 -4 -8 -10 -5 -15 3 -5 1
-11 -4 -14 -11 -7 -9 13 2 32 5 7 4 12 -2 12 -6 0 -11 -4 -11 -10 0 -20 -2
-25 -13 -39 -9 -12 -9 -13 1 -7 7 4 12 1 12 -8 0 -10 -6 -13 -17 -10 -16 5
-16 4 0 -6 17 -11 17 -13 3 -29 -10 -11 -12 -21 -6 -31 9 -13 10 -13 11 0 1 8
1 18 0 23 0 4 3 7 9 7 14 0 12 -12 -6 -38 -8 -12 -21 -20 -27 -16 -7 3 -1 -4
12 -15 13 -12 18 -21 11 -21 -9 0 -9 -4 1 -17 13 -16 12 -17 -3 -4 -10 7 -15
17 -12 22 3 5 1 9 -5 9 -5 0 -13 -4 -16 -10 -3 -5 -1 -10 4 -10 6 0 11 -7 11
-16 0 -8 -4 -12 -10 -9 -6 3 -7 -1 -4 -10 4 -8 0 -23 -7 -32 -8 -9 -9 -14 -3
-10 7 4 17 0 24 -8 11 -13 10 -14 -5 -9 -14 6 -16 4 -9 -7 12 -20 14 -40 3
-33 -5 3 -7 10 -4 15 3 5 -1 6 -9 3 -14 -5 -14 -8 0 -21 8 -9 12 -18 9 -21 -3
-4 -11 0 -16 8 -9 12 -10 12 -5 -3 3 -10 6 -21 6 -23 0 -3 4 -2 10 1 5 3 10 4
10 1 0 -3 -12 -12 -27 -20 -16 -8 -22 -15 -15 -16 7 0 10 -4 7 -10 -3 -5 0 -8
7 -7 7 2 10 2 5 0 -4 -3 -5 -9 -2 -14 4 -5 0 -6 -8 -3 -8 3 -14 -1 -14 -10 0
-8 4 -13 9 -10 14 9 9 -9 -11 -43 -16 -25 -17 -34 -7 -42 7 -6 15 -9 18 -6 2
3 4 -5 3 -17 -1 -12 -8 -24 -16 -26 -10 -2 -11 -1 -2 5 7 5 9 14 4 22 -6 10
-10 9 -15 -4 -3 -10 -1 -25 6 -33 11 -14 10 -15 -6 -8 -19 7 -19 6 -2 -13 12
-13 13 -19 4 -17 -7 0 -14 -3 -15 -9 -1 -5 6 -9 15 -7 15 2 15 1 2 -7 -17 -12
-20 -43 -5 -53 6 -5 3 -8 -6 -8 -9 0 -20 -7 -23 -16 -5 -14 -4 -15 8 -5 11 9
13 6 12 -18 0 -16 -4 -27 -9 -24 -4 2 -4 10 -1 16 5 9 4 9 -6 0 -11 -11 -15
-25 -19 -81 -1 -7 -5 -10 -11 -7 -16 10 -11 -1 7 -16 14 -12 16 -12 8 0 -6 10
-4 12 5 6 10 -6 9 -11 -4 -21 -16 -11 -16 -13 -1 -22 16 -8 16 -9 1 -15 -11
-5 -15 -3 -10 5 4 7 3 8 -5 4 -6 -4 -9 -11 -6 -16 3 -5 1 -11 -5 -15 -7 -4 -7
-12 0 -26 7 -13 7 -19 0 -19 -5 0 -10 5 -10 12 0 6 -3 8 -7 5 -3 -4 2 -16 12
-27 10 -11 15 -23 12 -27 -4 -3 -7 -1 -7 5 0 7 -4 12 -10 12 -5 0 -6 -7 -3
-17 5 -12 3 -14 -7 -8 -9 5 -11 4 -6 -4 4 -6 11 -9 15 -7 4 3 8 -2 8 -10 0 -8
-6 -13 -13 -10 -10 4 -11 -1 -5 -17 5 -13 17 -22 30 -23 12 -1 25 -5 29 -9 4
-5 -1 -5 -10 -2 -10 3 -20 3 -22 -2 -8 -12 27 -10 43 3 12 9 13 8 8 -6 -3 -10
-1 -20 5 -24 6 -4 8 -3 4 4 -3 6 -2 13 3 16 5 3 12 -6 16 -21 5 -21 8 -24 16
-12 7 12 10 12 18 0 5 -8 11 -9 15 -3 7 11 -21 25 -35 16 -5 -3 -9 0 -9 6 0
16 43 8 57 -10 9 -11 9 -17 0 -22 -15 -10 24 -5 40 5 6 4 15 2 19 -4 5 -8 3
-9 -6 -4 -9 5 -11 4 -6 -4 6 -9 11 -9 24 1 9 8 13 8 9 2 -4 -7 0 -14 8 -18 9
-3 12 -12 9 -23 -5 -15 -4 -15 4 -3 7 9 8 18 1 26 -7 8 -6 15 3 20 7 4 10 4 6
0 -8 -10 23 -47 34 -40 4 3 8 0 8 -7 0 -7 3 -10 6 -6 3 3 17 2 31 -4 17 -6 22
-6 17 2 -4 8 0 7 15 0 12 -7 26 -9 31 -6 5 3 12 1 15 -5 4 -6 1 -9 -6 -8 -6 2
-14 -4 -16 -12 -3 -9 -1 -11 4 -5 10 12 57 20 50 8 -3 -5 4 -15 16 -23 19 -12
20 -11 10 2 -11 12 -9 14 8 13 12 -1 28 -12 35 -26 8 -13 13 -17 12 -9 -2 8 2
15 7 15 5 0 8 -6 7 -14 -2 -7 1 -10 7 -7 5 4 15 -2 21 -11 11 -17 11 -17 6 -1
-7 22 -2 23 18 2 9 -9 16 -11 16 -4 0 6 5 8 10 5 6 -4 8 -12 5 -18 -3 -7 0 -5
6 4 11 15 15 14 36 -10 14 -14 21 -20 17 -12 -4 9 -2 12 7 9 8 -3 13 -12 13
-21 -1 -9 4 -13 12 -10 7 2 10 11 7 19 -3 8 0 14 7 14 6 0 9 -4 5 -9 -3 -5 -1
-12 5 -16 6 -4 7 -11 4 -17 -4 -7 -2 -8 5 -4 7 5 23 9 37 11 21 2 24 -1 19
-19 -5 -17 -4 -18 4 -6 6 8 19 16 30 16 16 1 18 -2 11 -16 -6 -11 -5 -17 3
-17 7 0 20 -4 30 -8 10 -4 17 -3 17 4 0 6 5 11 11 11 6 0 9 -7 6 -14 -4 -10
-1 -13 8 -10 7 3 15 -2 18 -13 4 -15 5 -15 6 -2 0 9 8 19 16 23 13 4 14 2 5
-14 -9 -16 -8 -18 6 -13 11 4 15 2 11 -4 -3 -5 -1 -10 6 -10 22 -1 42 -8 50
-18 5 -6 7 -4 4 5 -2 8 -10 14 -16 12 -6 -1 -11 3 -11 9 0 5 -5 7 -12 3 -7 -4
-8 -3 -4 4 9 15 40 0 55 -26 7 -10 11 -12 11 -4 0 8 9 4 23 -10 12 -13 16 -16
8 -6 -8 10 -11 21 -8 25 4 3 7 1 7 -6 0 -8 8 -10 23 -6 12 4 17 3 10 -2 -8 -6
-8 -13 2 -26 8 -12 15 -14 20 -8 3 6 1 11 -6 11 -7 0 -9 3 -6 6 4 4 18 -1 32
-10 22 -15 29 -15 43 -4 11 9 14 10 8 1 -9 -16 6 -17 20 -3 7 7 11 6 11 -4 0
-8 -4 -13 -9 -10 -4 3 -8 0 -8 -5 0 -6 9 -11 21 -11 11 0 18 -4 15 -8 -3 -5 1
-9 9 -9 8 0 11 5 8 11 -4 6 0 5 9 -2 9 -7 24 -12 34 -10 9 2 19 -4 21 -12 4
-13 3 -13 -6 0 -7 9 -11 10 -11 3 0 -20 17 -24 33 -8 22 21 33 19 14 -3 -15
-16 -15 -19 -2 -19 8 0 15 4 15 9 0 5 11 -2 23 -16 13 -14 28 -22 32 -18 5 4
5 1 1 -6 -5 -7 -13 -10 -20 -5 -7 4 -4 1 6 -9 18 -16 25 -34 10 -24 -4 2 -9
-4 -9 -15 -1 -10 3 -19 8 -19 6 0 7 4 4 10 -3 5 0 7 9 4 12 -5 13 -9 3 -19 -7
-7 -16 -10 -21 -7 -5 3 -6 0 -2 -7 4 -6 12 -9 17 -6 13 9 11 -9 -3 -23 -9 -9
-9 -12 0 -12 6 0 16 8 22 18 11 16 11 16 6 -1 -3 -10 -6 -23 -6 -28 0 -6 -4
-7 -10 -4 -16 10 -11 -1 7 -16 14 -12 16 -12 8 0 -5 10 -4 12 4 7 9 -6 9 -11
0 -22 -8 -10 -8 -14 0 -14 6 0 11 -7 11 -15 0 -8 -6 -15 -12 -15 -9 0 -9 -3 1
-9 13 -8 13 -12 0 -27 -8 -10 -9 -15 -4 -12 21 12 38 -10 40 -51 2 -47 12 -62
26 -41 9 13 10 12 6 -2 -3 -9 -3 -19 1 -22 13 -14 10 -35 -5 -29 -10 4 -11 8
-3 13 8 5 7 9 -3 13 -19 7 -17 -14 3 -39 16 -18 15 -19 -3 -44 -9 -12 -9 -13
3 -2 18 15 38 16 23 1 -9 -9 -6 -16 9 -29 15 -11 18 -21 12 -31 -12 -20 -14
-40 -3 -33 5 3 9 -2 9 -11 0 -9 4 -14 8 -11 10 6 9 -30 -1 -40 -4 -4 -7 -12
-7 -18 0 -6 5 -4 10 4 9 13 10 13 10 -1 0 -8 -6 -21 -12 -29 -11 -12 -10 -12
3 -2 22 16 33 2 11 -15 -9 -8 -11 -11 -3 -7 7 3 17 1 21 -6 10 -17 0 -51 -13
-43 -6 3 -7 1 -3 -5 4 -6 13 -9 20 -6 10 4 14 -4 15 -28 3 -87 7 -101 29 -109
12 -5 22 -11 22 -14 0 -4 -5 -3 -11 1 -7 4 -9 -1 -7 -12 2 -11 11 -18 19 -16
10 2 10 -1 -3 -11 -17 -14 -9 -45 9 -34 5 3 9 -4 8 -16 -1 -14 -8 -21 -18 -21
-9 1 -14 -2 -11 -7 3 -5 15 -9 27 -9 18 0 19 -2 7 -10 -13 -8 -13 -10 2 -10 9
0 19 -4 22 -9 4 -5 -4 -7 -16 -4 -19 4 -20 3 -8 -6 8 -6 11 -11 7 -11 -4 0 -4
-8 2 -17 7 -13 5 -23 -7 -37 -13 -15 -9 -14 18 4 l35 25 -23 -30 -24 -30 24
-6 c12 -4 18 -7 11 -8 -7 -1 -11 -13 -10 -30 1 -16 5 -27 10 -24 4 2 7 -1 7
-8 0 -8 5 -7 18 2 15 12 16 12 6 -1 -6 -8 -9 -28 -7 -43 3 -22 1 -27 -9 -21
-10 6 -10 4 1 -9 15 -19 26 -23 15 -5 -4 7 -3 8 5 4 9 -6 9 -11 0 -22 -7 -9
-8 -14 -1 -14 6 0 14 -10 17 -21 4 -12 10 -17 14 -12 8 14 82 22 73 8 -3 -5 2
-4 11 4 9 7 14 18 10 24 -3 6 -1 7 6 3 6 -4 9 -12 6 -17 -4 -5 -2 -9 4 -9 5 0
12 8 14 18 4 16 5 16 6 0 0 -10 6 -18 12 -18 6 0 8 7 4 18 -4 12 -1 11 15 -5
29 -31 36 -29 14 5 -15 23 -15 25 -1 13 13 -10 20 -11 30 -2 10 8 14 7 14 -4
0 -8 -3 -12 -7 -10 -3 2 -7 -6 -7 -18 -2 -20 -1 -20 8 -4 6 9 15 14 21 11 7
-4 8 -2 4 4 -4 7 -3 12 3 12 5 0 13 -4 16 -10 8 -13 25 -13 25 1 0 5 -4 7 -10
4 -5 -3 -10 -2 -10 4 0 5 15 8 33 7 17 -2 38 2 46 8 11 8 13 8 8 -1 -4 -6 -4
-13 0 -16 5 -2 1 -2 -7 0 -11 3 -12 1 -3 -8 12 -12 37 -3 28 11 -3 5 -1 11 5
15 5 3 10 -1 10 -10 0 -9 5 -13 10 -10 6 4 17 2 24 -4 9 -8 13 -7 13 4 0 8 -5
11 -11 8 -6 -3 -8 -2 -3 2 4 5 17 10 29 12 18 3 19 1 7 -13 -13 -16 -12 -16
11 -3 14 7 32 13 42 14 9 0 20 3 24 8 4 4 12 7 18 7 6 0 -2 -9 -19 -20 -16
-11 -25 -20 -18 -20 6 0 14 4 18 9 3 6 14 8 25 6 13 -2 18 0 14 7 -4 6 -1 9 7
6 8 -3 13 -11 11 -17 -3 -16 3 -14 19 6 12 15 12 16 -1 8 -8 -4 -12 -4 -7 0 4
5 16 9 26 10 16 1 17 -1 8 -16 -9 -14 -9 -21 0 -30 9 -9 10 -6 6 11 -5 19 -3
22 10 17 9 -3 19 -1 23 5 5 7 2 8 -7 3 -11 -7 -11 -5 1 11 8 10 15 20 16 22 1
2 4 -4 8 -13 3 -9 2 -13 -4 -10 -6 3 -10 4 -10 1 0 -3 9 -10 19 -15 17 -9 18
-8 13 11 -5 19 -4 20 10 7 9 -7 13 -18 10 -24 -3 -5 1 -4 10 3 13 10 17 10 21
0 4 -11 6 -10 6 0 1 7 5 10 11 7 6 -4 7 1 3 12 -3 10 -3 15 2 11 4 -4 14 -3
22 4 9 7 13 8 11 1 -2 -6 2 -11 7 -12 6 -1 10 3 10 8 0 5 3 12 7 16 3 4 5 -6
3 -22 l-3 -28 15 22 c18 27 26 28 47 8 14 -14 17 -14 35 4 19 19 19 19 29 -3
6 -11 11 -15 11 -8 1 6 10 12 20 12 11 0 22 -6 24 -12 3 -7 6 -2 6 12 1 19 4
22 10 11 11 -18 48 -25 56 -11 3 6 -2 7 -12 4 -14 -5 -15 -4 -4 4 8 6 20 8 28
5 7 -3 21 1 30 8 15 13 15 12 4 -10 -14 -25 -4 -24 30 6 13 11 16 11 16 -2 0
-8 -4 -15 -9 -15 -5 0 -6 -5 -3 -11 5 -6 12 -4 20 8 7 10 11 22 8 27 -4 5 -1
6 6 2 6 -4 9 -11 6 -16 -3 -5 -1 -12 5 -15 6 -4 9 -1 8 6 -2 6 3 14 11 17 9 3
11 0 7 -7 -5 -7 -2 -10 6 -9 7 2 12 -4 10 -12 -3 -11 2 -10 17 4 23 21 29 35
7 17 -10 -8 -16 -9 -21 -1 -3 5 1 10 9 10 9 0 16 6 16 13 0 9 2 9 9 -1 4 -7
12 -12 17 -11 21 4 35 -2 29 -11 -3 -6 1 -7 9 -4 9 3 13 10 10 15 -3 5 2 6 10
3 9 -3 13 -11 10 -16 -4 -6 3 -5 15 1 24 13 29 23 7 15 -8 -3 -16 -2 -19 3 -9
15 38 10 49 -5 9 -12 12 -13 19 -2 6 9 4 11 -5 5 -8 -5 -11 -4 -7 3 4 5 17 8
29 4 16 -4 19 -2 13 8 -5 9 -4 11 3 6 19 -12 14 -36 -5 -30 -15 5 -15 4 -3 -4
17 -12 30 -7 30 13 0 8 4 17 10 20 6 4 7 -1 3 -11 -4 -10 -2 -15 3 -12 5 4 18
0 29 -8 10 -8 14 -14 9 -14 -6 0 -15 5 -21 11 -8 8 -13 8 -18 0 -4 -7 -1 -10
7 -9 7 2 12 -2 11 -8 -1 -6 9 -10 23 -8 22 2 23 0 12 -14 -11 -13 -10 -15 10
-10 19 5 21 4 11 -8 -9 -11 -9 -14 0 -14 7 0 9 -5 5 -12 -5 -8 0 -7 11 2 15
12 17 12 10 1 -6 -11 -4 -13 11 -8 18 7 18 7 0 -8 -17 -13 -18 -15 -3 -15 15
0 22 -18 18 -43 -1 -5 3 -6 9 -2 6 3 7 12 3 18 -4 7 2 5 13 -3 29 -22 30 -24
12 -17 -10 4 -18 2 -18 -3 0 -6 8 -10 19 -10 13 0 18 -7 17 -22 -1 -17 4 -22
18 -20 11 2 15 -1 11 -7 -3 -6 -1 -11 5 -11 6 0 8 -4 5 -10 -3 -5 1 -10 9 -10
9 0 16 -6 16 -12 0 -9 4 -8 10 2 5 8 10 10 10 4 0 -5 -6 -16 -12 -23 -10 -11
-10 -13 0 -7 7 5 12 1 12 -9 0 -10 5 -13 12 -9 8 5 9 2 5 -10 -4 -10 -3 -15 3
-11 5 3 18 1 27 -5 17 -11 17 -11 1 -6 -10 3 -18 1 -18 -4 0 -6 5 -10 11 -10
5 0 7 -6 3 -12 -6 -10 -4 -10 7 0 7 6 18 12 24 12 5 0 3 -5 -5 -10 -10 -6 -11
-10 -2 -10 6 0 12 -7 12 -16 0 -8 5 -12 11 -8 8 4 9 -1 5 -17 -3 -13 -3 -18 0
-11 9 19 23 14 19 -7 -3 -14 1 -18 11 -14 8 3 14 0 14 -7 0 -6 5 -8 10 -5 6 3
10 -4 10 -18 0 -30 24 -54 36 -36 4 7 3 9 -4 5 -6 -3 -13 -2 -16 3 -5 7 8 8
32 2 1 -1 -2 -10 -8 -21 -9 -17 -7 -22 15 -32 14 -6 25 -15 25 -20 0 -5 -6 -6
-12 -2 -8 4 -10 3 -5 -2 8 -9 12 -10 39 -13 7 0 4 -6 -6 -14 -15 -11 -13 -13
18 -12 19 1 34 -1 33 -4 -1 -3 4 -15 10 -26 6 -11 9 -27 8 -36 -2 -12 3 -15
16 -12 21 6 27 -12 7 -20 -10 -4 -10 -6 0 -6 7 -1 10 -5 7 -11 -3 -6 1 -7 10
-3 14 5 14 8 3 15 -10 8 -10 9 2 5 8 -2 15 -10 16 -18 3 -42 3 -42 21 -28 15
13 15 12 3 -11 -10 -21 -10 -23 1 -12 17 15 37 16 21 0 -9 -9 -8 -15 2 -27 8
-9 15 -20 16 -26 1 -5 8 -9 17 -7 10 2 14 -2 10 -11 -3 -8 1 -14 9 -14 8 0 14
5 14 10 0 6 2 8 5 5 3 -3 1 -17 -5 -32 -5 -15 -6 -25 -1 -22 5 3 14 -1 21 -9
6 -7 19 -11 28 -8 15 6 15 5 3 -10 -12 -15 -11 -17 10 -18 22 0 23 -1 4 -9
-19 -8 -19 -9 3 -9 13 -1 20 -5 17 -11 -3 -6 -1 -10 4 -10 6 0 11 5 11 12 0 6
3 8 6 5 4 -4 1 -14 -7 -23 -13 -16 -11 -17 14 -12 27 5 27 5 11 -13 -10 -11
-14 -22 -11 -26 4 -3 7 -2 7 4 0 6 8 14 17 17 10 4 14 4 10 0 -4 -4 -1 -14 6
-23 10 -14 10 -14 -4 -4 -13 10 -16 10 -16 -2 0 -7 3 -14 6 -13 20 2 30 -4 36
-22 3 -11 11 -20 16 -20 6 0 7 6 4 13 -4 6 1 3 11 -8 13 -16 16 -17 11 -3 -3
10 -1 20 5 24 7 4 8 3 4 -4 -11 -19 5 -14 21 6 8 9 12 11 8 5 -11 -22 12 -14
29 9 12 16 15 17 12 6 -3 -10 0 -20 6 -24 6 -4 9 -3 5 2 -3 5 1 20 10 34 8 14
12 18 10 9 -3 -9 1 -16 8 -16 8 0 14 3 13 6 -2 19 4 24 13 11 9 -12 10 -11 6
7 -3 13 0 26 5 30 6 3 8 1 4 -5 -3 -6 -2 -13 4 -17 6 -4 7 -11 4 -17 -4 -7 -2
-8 4 -4 6 4 8 14 5 24 -6 15 -5 16 12 2 10 -8 16 -10 12 -4 -4 7 0 14 8 18 9
3 12 12 8 23 -5 15 -3 15 10 -2 16 -19 22 -12 18 20 -1 6 4 3 11 -5 15 -17 43
-26 33 -10 -3 5 1 10 9 10 9 0 16 5 16 10 0 7 -6 7 -19 0 -14 -7 -22 -7 -27 2
-4 6 -3 8 2 5 6 -3 16 -2 24 3 10 6 21 3 33 -8 15 -13 18 -14 15 -2 -2 8 -7
18 -11 21 -5 3 -2 9 7 12 8 3 18 1 22 -5 5 -7 2 -8 -6 -3 -9 5 -11 4 -6 -4 12
-18 28 -1 22 23 -5 20 -4 19 13 -3 l19 -24 -3 25 c-3 26 7 30 34 14 11 -7 13
-5 9 6 -5 12 0 15 22 13 16 -1 29 0 28 4 -2 18 3 22 15 13 10 -8 13 -6 14 9 1
12 -3 17 -9 13 -7 -4 -8 -2 -4 5 4 6 12 9 17 5 5 -3 17 0 26 8 12 9 15 9 9 1
-11 -20 1 -15 29 11 16 15 33 22 42 19 10 -4 14 -2 9 5 -3 6 -2 13 3 16 5 4
13 1 17 -5 4 -8 3 -9 -4 -5 -8 5 -10 1 -5 -10 5 -15 7 -15 15 0 5 9 6 21 3 26
-3 6 1 7 9 4 9 -3 14 -9 11 -13 -2 -4 2 -8 10 -8 13 0 13 3 0 17 -13 15 -13
17 0 17 8 0 15 -3 15 -7 0 -4 7 -7 15 -7 11 0 12 4 4 13 -7 8 -6 14 2 20 7 4
9 3 6 -3 -4 -6 0 -13 8 -16 10 -4 12 -1 8 10 -5 13 0 15 24 11 19 -2 30 0 30
8 0 7 -7 10 -16 7 -13 -4 -13 -3 -2 5 7 5 23 7 35 5 17 -4 18 -3 6 6 -12 9
-10 11 12 11 17 0 31 8 38 20 6 11 15 18 20 15 5 -3 14 3 20 12 9 13 10 14 7
2 -3 -9 1 -16 9 -16 7 0 11 4 8 9 -4 5 2 8 12 6 13 -2 19 3 18 15 -2 18 -1 18
18 0 21 -18 21 -18 8 7 l-13 24 29 -19 c28 -18 28 -18 14 0 -14 17 -13 18 3
12 14 -5 20 -2 24 13 5 19 6 20 19 3 12 -15 13 -15 8 -2 -5 17 9 32 34 35 6 1
12 -3 13 -9 0 -7 4 -2 9 11 9 20 12 21 32 11 21 -11 22 -11 10 4 -11 13 -10
15 5 12 10 -1 23 0 28 4 6 3 13 6 18 7 4 1 10 2 14 3 3 0 -2 11 -13 24 -10 12
-12 17 -5 10 7 -6 20 -9 29 -6 8 4 13 2 9 -3 -3 -5 3 -10 13 -10 14 0 16 3 8
13 -8 10 -4 13 16 13 14 0 26 4 26 9 0 14 29 21 36 9 5 -7 2 -8 -7 -3 -12 8
-12 6 0 -8 14 -18 32 -14 27 6 -1 7 -1 8 2 4 2 -4 11 -2 20 5 14 10 15 10 5
-2 -18 -20 -16 -31 4 -23 11 4 14 3 9 -5 -5 -8 2 -12 19 -12 15 0 24 -4 20
-10 -3 -5 -1 -10 5 -10 6 0 8 -5 4 -12 -4 -7 -3 -8 4 -4 6 4 9 13 5 21 -3 8 0
15 7 15 6 0 9 -4 5 -9 -3 -5 1 -16 9 -24 8 -8 12 -18 8 -22 -4 -5 -1 -5 7 0 8
4 17 2 22 -6 6 -10 9 -10 9 -2 0 7 -9 17 -20 23 -11 6 -20 15 -20 21 0 5 10 1
22 -11 12 -11 26 -20 32 -20 6 0 21 -12 33 -27 13 -14 23 -21 23 -15 0 7 5 12
11 12 5 0 7 -4 4 -10 -3 -5 3 -10 14 -10 11 0 22 -9 26 -19 3 -11 12 -18 19
-15 7 3 19 -2 26 -11 7 -8 17 -15 23 -15 6 0 1 7 -11 16 -12 8 -22 19 -22 25
0 5 9 0 20 -11 20 -20 32 -24 58 -21 6 1 12 -6 12 -16 0 -15 -2 -16 -11 -3 -9
13 -10 13 -6 0 2 -8 8 -15 13 -15 5 0 16 -4 24 -9 12 -7 13 -6 3 5 -7 7 -13
17 -13 23 0 5 9 -1 19 -13 11 -13 24 -20 29 -17 13 8 34 -18 24 -29 -4 -5 7
-1 23 10 l30 18 -19 -21 c-19 -22 -19 -22 3 -22 12 0 19 4 16 10 -3 6 1 7 9 4
14 -6 21 -24 17 -47 -1 -5 3 -6 8 -3 5 4 12 2 15 -2 3 -5 17 -7 31 -4 26 5 33
-6 14 -25 -8 -8 -8 -13 0 -18 7 -4 10 -1 9 7 -2 8 7 13 25 14 20 1 26 -3 23
-12 -3 -8 0 -13 7 -11 7 1 11 -3 10 -9 -1 -6 9 -10 22 -8 14 1 25 -2 25 -7 0
-5 4 -9 10 -9 5 0 6 7 3 17 -4 11 -3 14 5 9 7 -4 12 -17 13 -29 0 -12 3 -17 6
-10 3 9 13 5 30 -11 16 -15 32 -22 46 -18 12 3 18 1 14 -5 -4 -6 1 -17 11 -24
16 -13 16 -13 2 5 -14 18 -13 19 2 13 9 -3 19 -1 22 6 3 7 3 1 0 -12 -5 -18
-3 -22 7 -15 19 11 40 14 34 4 -2 -4 5 -16 16 -26 19 -17 20 -17 14 2 -6 17
-6 17 5 2 6 -10 18 -18 26 -18 8 0 17 -7 21 -16 5 -13 7 -13 14 -2 7 10 9 11
9 0 0 -8 5 -10 13 -6 7 5 6 0 -3 -11 -14 -17 -13 -18 5 -11 25 10 26 10 53 1
21 -7 21 -8 5 -21 -16 -12 -16 -13 5 -7 15 4 28 -1 38 -13 9 -11 13 -13 9 -6
-3 6 -1 12 4 12 6 0 11 -6 11 -14 0 -7 8 -20 17 -27 11 -10 14 -10 9 -1 -5 8
0 12 16 12 18 0 20 -2 8 -10 -13 -8 -12 -10 3 -10 11 0 15 -4 11 -12 -4 -7 -3
-8 5 -4 6 4 9 11 7 15 -3 4 1 8 9 8 8 0 12 -4 9 -8 -2 -4 0 -10 5 -13 5 -4 12
2 14 11 4 17 5 17 6 1 0 -10 6 -18 11 -18 9 0 15 23 11 44 -1 5 5 4 13 -3 13
-11 15 -9 11 11 l-4 23 18 -24 c15 -20 18 -21 16 -4 0 10 -4 24 -8 30 -4 6 -2
15 4 19 8 4 9 3 5 -4 -4 -7 -1 -12 8 -12 10 0 13 6 9 17 -5 11 -3 14 6 8 10
-5 12 -2 7 11 -3 11 -1 26 5 34 8 12 9 11 4 -6 -3 -14 1 -26 12 -35 16 -12 17
-12 6 1 -12 16 -3 42 13 41 5 -1 9 2 9 7 0 4 4 13 8 19 5 7 5 18 1 25 -4 7 -3
8 4 4 7 -4 12 -1 12 6 0 10 2 10 9 -1 7 -11 10 -9 13 10 1 13 10 24 18 24 9 0
15 9 14 23 -1 17 1 20 12 11 10 -8 12 -5 8 17 l-5 27 21 -24 c12 -13 18 -17
14 -9 -5 8 -10 24 -12 35 -3 20 -3 20 12 0 14 -19 15 -19 12 6 -2 20 1 26 13
24 26 -4 32 5 19 28 -10 20 -10 21 6 8 9 -8 16 -10 15 -5 -4 21 2 28 11 14 8
-11 9 -7 4 15 -4 20 -3 26 4 17 7 -11 11 -8 16 12 4 16 11 23 20 20 9 -3 17 3
21 15 3 12 11 18 17 15 6 -4 5 3 -2 16 -8 15 -8 20 -1 16 6 -4 11 -2 11 4 0 6
4 9 9 6 12 -8 44 30 37 43 -4 5 -2 13 4 16 6 4 9 1 8 -6 -2 -6 4 -14 12 -16 9
-3 11 -1 5 4 -14 11 -18 43 -6 43 5 0 12 -6 14 -12 4 -8 6 -7 6 4 1 9 -2 18
-6 21 -5 2 -3 3 4 1 6 -1 19 7 29 19 10 12 12 16 4 10 -8 -7 -19 -13 -25 -13
-5 0 2 8 18 18 15 10 24 23 20 27 -5 5 1 3 11 -5 18 -14 19 -14 6 10 -7 14 -9
22 -5 18 10 -9 45 9 45 23 0 6 -6 7 -12 3 -8 -5 -8 -1 2 12 22 29 24 30 17 12
-3 -10 -2 -20 3 -23 9 -6 15 16 11 38 -1 5 9 5 21 2 23 -7 23 -7 3 9 -20 15
-20 15 3 11 20 -4 22 -2 11 11 -7 8 -8 14 -3 13 26 -5 36 2 31 22 -4 16 -3 18
8 9 10 -8 15 -8 21 1 4 8 3 9 -4 5 -18 -11 -14 10 5 25 15 12 16 12 8 -1 -5
-9 -5 -12 1 -7 5 5 9 14 9 20 0 7 8 11 18 11 14 -2 15 1 6 12 -9 11 -8 14 6
14 14 0 15 3 6 14 -10 12 -9 14 7 10 11 -3 24 2 33 13 12 16 12 17 -1 6 -11
-8 -20 -9 -30 -2 -12 8 -11 9 5 7 12 -2 19 2 17 10 -2 10 2 10 19 1 13 -7 19
-7 15 -1 -4 6 2 16 11 22 15 9 15 10 -6 4 -16 -4 -21 -3 -17 5 4 6 14 11 22
11 8 0 14 10 15 23 0 12 3 16 6 9 2 -6 9 -10 13 -7 5 3 7 12 3 20 -3 10 1 15
12 15 10 0 14 5 9 13 -4 6 -4 9 1 5 5 -5 15 2 23 13 l15 22 17 -23 c13 -17 19
-20 25 -10 6 9 4 11 -5 5 -8 -5 -11 -4 -6 3 4 6 13 9 21 5 8 -3 15 1 15 8 0 7
3 9 6 6 4 -4 1 -13 -6 -22 -11 -13 -10 -14 5 -9 13 5 16 4 11 -5 -4 -6 8 -3
27 8 36 20 74 21 69 2 -2 -12 -1 -13 43 -16 17 -1 36 3 43 8 6 5 12 6 12 2 0
-4 7 -2 16 5 12 11 15 11 12 0 -2 -8 3 -14 10 -15 7 0 17 -7 23 -15 8 -12 9
-10 4 7 -3 12 -1 24 5 28 6 4 10 3 9 -2 -4 -15 14 -45 20 -35 3 5 20 12 38 15
27 5 31 4 26 -11 -5 -14 -4 -14 9 2 13 17 15 17 31 1 16 -15 17 -15 17 7 l1
23 14 -25 14 -25 1 25 c1 25 1 25 10 2 5 -12 12 -22 15 -22 4 0 3 5 0 10 -3 6
-1 10 5 10 6 0 8 6 5 13 -4 6 3 1 14 -12 16 -18 21 -20 21 -7 0 9 4 16 10 16
5 0 7 -8 3 -17 -5 -15 -3 -16 8 -5 16 14 33 16 24 2 -3 -5 -1 -10 4 -10 6 0
11 6 11 13 0 8 2 9 8 1 4 -7 18 -12 32 -12 45 0 51 -2 45 -14 -4 -7 0 -4 9 6
8 10 12 24 9 30 -4 6 0 6 9 -1 8 -7 18 -10 21 -6 4 3 7 1 7 -6 0 -7 -6 -11
-13 -8 -8 3 -14 -1 -14 -8 0 -10 5 -11 18 -4 13 7 20 5 27 -7 8 -15 10 -15 15
0 5 13 11 14 33 6 24 -9 25 -9 14 5 -18 21 -7 19 20 -5 16 -14 27 -17 34 -10
14 14 29 13 20 -2 -6 -10 -5 -10 8 -1 8 7 18 10 21 6 4 -3 7 -1 7 6 0 8 -7 11
-17 6 -14 -5 -15 -4 -6 6 9 9 16 9 26 1 8 -7 18 -8 23 -4 4 4 2 -2 -6 -13 -15
-19 -15 -19 14 -1 16 10 26 14 22 8 -3 -5 3 -12 14 -15 22 -6 28 8 8 16 -7 3
-3 4 9 4 18 -1 22 -6 17 -22 -3 -12 -2 -16 3 -8 5 7 24 11 46 9 20 -2 35 0 32
4 -3 5 0 12 6 16 7 4 9 3 6 -3 -4 -6 0 -16 8 -23 13 -11 14 -10 10 3 -4 8 -1
18 6 23 8 5 10 3 4 -6 -6 -10 -4 -12 8 -7 11 4 17 1 17 -7 0 -8 10 -13 23 -12
12 1 28 -3 36 -8 12 -9 12 -7 1 14 -7 14 -9 22 -5 18 5 -4 14 -3 21 3 10 8 16
3 27 -23 13 -31 14 -32 21 -11 6 19 11 21 27 12 11 -5 17 -14 14 -20 -4 -5 -1
-9 4 -9 6 0 11 5 11 10 0 6 7 10 16 10 9 0 12 -5 8 -12 -5 -7 -3 -8 5 -4 7 5
10 15 6 24 -4 12 -1 12 16 -4 17 -14 21 -15 17 -4 -4 11 0 16 13 16 12 0 15
-4 9 -11 -6 -8 -5 -12 4 -12 9 0 13 9 11 24 -2 19 0 21 12 12 7 -7 16 -9 20
-5 3 3 1 6 -5 6 -12 0 -10 55 3 67 4 4 5 2 1 -4 -4 -7 -2 -13 4 -13 7 0 9 7 6
16 -3 9 -6 18 -6 21 0 3 -8 -1 -17 -8 -16 -13 -17 -12 -4 4 11 14 17 15 28 5
11 -9 13 -8 11 3 -2 8 -7 17 -13 21 -6 5 -5 8 3 8 6 0 12 9 12 19 0 11 3 21 8
24 4 2 2 2 -5 1 -6 -2 -17 5 -25 14 -11 15 -11 15 3 5 13 -10 19 -10 35 2 10
8 15 15 11 15 -4 0 -3 9 3 19 7 14 7 22 -1 26 -7 5 -4 14 8 28 10 11 12 17 6
13 -16 -9 -16 -1 -2 25 5 11 15 16 21 13 7 -4 8 -3 4 5 -4 6 -11 9 -16 6 -5
-3 -12 -1 -15 5 -4 6 -3 10 2 9 23 -4 31 3 26 22 -4 12 0 25 8 30 8 5 9 9 3 9
-14 0 -10 46 5 64 6 7 7 17 3 22 -4 4 0 3 9 -4 14 -11 15 -7 12 32 -3 25 0 47
6 50 7 5 9 0 5 -11 -5 -15 -4 -15 4 -3 8 10 7 19 -1 29 -10 12 -8 13 13 8 l25
-6 -25 19 c-14 10 -21 22 -17 26 4 4 7 2 7 -4 0 -7 5 -12 11 -12 7 0 9 10 5
26 -5 19 -4 24 6 18 8 -5 8 -1 -2 11 -14 16 -13 17 7 11 23 -7 41 8 22 20 -8
5 -9 3 -4 -6 5 -8 3 -11 -5 -8 -7 2 -14 12 -16 21 -1 10 2 14 8 10 7 -4 9 1 6
15 -4 15 -2 19 8 15 8 -3 14 0 14 6 0 6 -4 11 -10 11 -5 0 -10 5 -10 11 0 5 6
7 13 3 9 -6 9 -4 -1 8 -10 13 -10 17 4 22 14 5 14 9 3 23 -11 14 -11 15 -1 9
10 -6 13 -2 10 14 -2 14 3 25 12 27 13 4 13 3 0 -7 -13 -10 -13 -11 0 -7 8 2
14 10 12 16 -1 6 3 11 10 11 6 0 3 7 -8 15 -17 13 -17 14 -1 15 9 0 17 5 17
11 0 5 -4 8 -9 4 -5 -3 -13 0 -17 6 -5 8 -3 9 6 4 10 -6 12 -4 6 10 -5 15 -4
16 9 5 13 -11 14 -10 9 5 -6 14 -4 16 6 10 9 -5 11 -4 6 4 -5 7 -9 23 -11 37
-2 21 1 24 19 18 21 -6 21 -6 1 10 -15 12 -16 15 -5 16 8 0 21 9 28 20 8 14 9
19 1 18 -6 -2 -14 3 -17 11 -3 10 0 11 9 5 11 -6 10 -3 -1 11 -9 11 -10 16 -2
11 16 -9 16 6 0 22 -10 10 -8 14 10 19 21 5 21 6 5 20 -10 8 -12 12 -5 8 6 -3
12 -1 12 6 0 7 7 4 16 -7 15 -18 15 -18 5 3 -6 12 -16 24 -23 27 -7 4 -3 4 9
2 25 -4 26 12 3 31 -13 12 -13 12 1 8 12 -4 15 1 13 25 -2 27 0 29 14 18 13
-11 14 -10 4 9 -17 30 -15 41 3 17 14 -18 14 -18 9 2 -3 12 0 25 7 29 8 5 10
4 5 -3 -4 -7 -3 -12 2 -12 5 0 14 10 20 23 7 12 11 15 9 7 -1 -8 3 -16 8 -17
6 -2 10 1 10 6 0 16 15 25 16 10 0 -8 4 -4 9 8 9 21 14 22 60 11 10 -2 14 3
12 16 -3 17 -2 18 12 7 9 -8 16 -10 16 -5 0 5 5 2 11 -6 9 -13 10 -13 6 0 -2
8 -11 14 -18 12 -9 -2 -7 4 5 17 22 24 35 29 16 6 -10 -12 -10 -15 4 -15 9 0
16 6 16 13 0 9 3 8 9 -2 7 -11 9 -11 14 0 4 10 6 10 6 2 1 -7 5 -13 11 -13 5
0 7 6 4 14 -3 8 0 17 5 21 6 3 8 11 5 17 -4 7 -2 8 5 4 9 -6 9 -11 1 -21 -8
-9 -6 -14 5 -19 9 -3 13 -2 10 3 -3 5 -1 12 5 16 6 4 7 11 4 17 -4 7 -2 8 4 4
6 -4 10 -12 8 -19 -1 -7 -1 -9 1 -5 2 4 12 4 21 1 10 -3 13 -1 7 4 -13 11 -17
33 -6 33 5 0 12 -8 16 -17 6 -17 7 -17 19 -1 7 10 16 15 19 11 8 -8 38 17 32
27 -7 11 39 7 47 -5 5 -6 12 -5 20 4 7 8 8 11 2 8 -7 -4 -15 0 -18 9 -3 8 -2
13 2 10 22 -13 63 -14 68 -1 3 7 13 16 21 19 13 5 14 4 3 -9 -7 -9 -10 -18 -6
-22 3 -3 6 -1 6 6 0 7 5 9 12 5 6 -4 8 -3 5 3 -4 6 1 19 9 29 9 10 13 14 10 8
-3 -7 2 -15 11 -18 10 -4 14 -4 10 0 -4 4 0 16 10 26 18 20 33 24 33 8 0 -6
-5 -9 -11 -8 -6 2 -14 -3 -16 -10 -4 -11 -1 -12 13 -4 19 10 26 12 45 12 5 0
7 5 3 11 -4 8 -9 7 -15 -2 -6 -10 -9 -10 -9 -2 0 19 16 24 43 14 18 -7 30 -6
44 4 11 8 23 12 25 9 3 -2 11 2 18 11 7 8 28 15 46 15 24 0 32 4 28 14 -7 18
12 30 22 15 5 -8 3 -9 -6 -4 -9 5 -11 4 -6 -4 6 -8 12 -9 20 -2 7 6 16 8 20 4
4 -4 4 0 1 9 -4 9 -1 19 6 24 8 4 10 3 5 -4 -4 -7 -2 -12 4 -12 6 0 8 -6 5
-12 -4 -7 3 -2 14 12 14 17 21 20 21 10 1 -8 6 -4 11 10 10 25 11 25 26 5 l15
-20 -4 20 c-4 16 1 20 21 22 24 1 25 1 6 -13 -10 -8 -15 -14 -9 -14 5 0 18 7
28 15 10 8 23 12 29 8 6 -3 7 -1 3 6 -4 6 -12 8 -18 5 -7 -4 -8 -2 -4 4 5 9
13 9 26 2 13 -7 21 -7 25 0 4 6 1 9 -6 8 -6 -2 -14 4 -16 12 -4 13 -3 13 6 0
6 -8 11 -11 11 -6 0 5 8 2 17 -5 9 -8 14 -9 10 -3 -4 7 0 14 8 18 8 3 17 0 21
-6 5 -7 2 -8 -6 -3 -9 6 -11 4 -6 -4 8 -12 20 -7 22 10 3 22 5 23 14 9 8 -12
10 -11 10 8 0 12 5 22 11 22 5 0 7 -4 4 -10 -3 -5 -1 -10 5 -10 6 0 8 -4 5
-10 -3 -5 -1 -10 5 -10 6 0 8 11 6 25 -3 14 -1 23 5 20 5 -4 9 -1 9 6 0 7 7 4
16 -7 15 -18 15 -18 10 0 -6 17 -5 17 11 5 11 -9 14 -10 9 -1 -5 8 2 12 25 12
27 0 30 2 19 15 -16 20 -6 19 14 -1 15 -14 16 -14 16 1 0 13 6 16 21 12 16 -4
18 -3 8 9 -6 8 -7 14 -2 14 5 0 9 11 9 24 0 14 -3 23 -7 20 -4 -2 -9 5 -12 17
-5 17 -3 18 9 8 12 -10 13 -9 8 5 -3 9 -12 16 -18 16 -8 0 -11 11 -9 33 4 26
2 29 -7 17 -10 -13 -11 -12 -6 3 3 10 1 28 -6 40 -10 19 -9 20 4 10 12 -11 14
-9 13 7 -1 11 -5 23 -10 27 -4 5 -5 3 -2 -3 3 -6 0 -11 -8 -11 -13 0 -13 3 1
18 14 16 13 19 -8 39 -13 13 -17 20 -10 16 7 -4 12 -1 12 8 0 9 -5 15 -11 14
-6 -2 -14 4 -16 12 -3 9 -1 11 4 5 9 -11 33 -18 33 -9 0 3 -7 12 -15 20 -12
12 -13 20 -3 37 10 20 10 21 -5 8 -20 -16 -23 -1 -4 18 10 11 10 13 0 7 -7 -4
-13 -3 -13 1 0 5 6 15 13 22 10 11 10 13 0 7 -15 -8 -17 3 -3 24 6 10 4 20 -7
32 -13 15 -19 16 -32 5 -12 -9 -12 -7 2 13 19 27 22 44 7 35 -17 -11 -11 7 8
21 15 12 14 12 -8 7 -24 -6 -24 -6 -7 11 16 17 16 20 2 35 -17 19 -21 46 -5
36 6 -3 10 -1 10 4 0 6 -7 11 -15 11 -8 0 -15 5 -15 10 0 6 3 9 8 9 19 -3 21
3 8 24 -7 12 -12 30 -11 40 2 9 -6 22 -17 28 -15 8 -17 14 -9 22 15 15 14 30
-1 22 -7 -4 -4 1 6 9 11 9 14 16 7 16 -7 0 -9 5 -5 13 6 9 4 9 -8 -1 -13 -11
-18 -11 -24 0 -4 7 -4 10 1 6 8 -7 34 19 35 35 0 4 -9 7 -21 7 -14 0 -19 5
-16 15 4 8 2 17 -2 20 -11 6 -9 55 3 74 6 10 5 12 -3 7 -9 -6 -11 3 -7 33 2
22 0 43 -5 47 -5 3 -9 0 -9 -6 0 -6 -5 -8 -11 -5 -6 5 -4 11 7 19 13 10 14 15
4 21 -9 5 -11 4 -6 -3 5 -8 1 -10 -10 -5 -11 4 -13 8 -6 11 7 2 10 8 7 12 -3
5 0 12 6 16 8 4 9 3 5 -4 -4 -7 -3 -12 3 -12 5 0 9 9 8 19 -1 16 -4 18 -22 9
-20 -11 -20 -11 -1 11 20 22 9 30 -13 8 -7 -7 -6 0 3 18 9 18 12 31 6 33 -6 2
-10 8 -10 13 0 6 4 7 10 4 6 -3 7 1 4 9 -3 9 -11 13 -18 9 -6 -4 -4 1 4 12 14
17 13 17 -10 11 -19 -6 -22 -5 -10 3 12 9 13 13 2 20 -11 7 -10 9 3 14 9 4 13
3 10 -3 -3 -6 -1 -10 4 -10 16 0 13 16 -4 30 -14 12 -11 35 4 26 4 -3 8 2 8
10 0 10 -4 11 -11 4 -18 -18 -26 -11 -9 9 9 11 23 17 32 14 9 -3 12 -1 6 4 -5
4 -17 17 -25 27 -15 19 -15 19 14 1 l29 -19 -13 24 c-13 24 -12 24 5 10 17
-14 18 -13 12 10 -6 24 -6 24 10 5 15 -20 15 -20 10 3 -5 20 -3 22 11 10 12
-10 14 -10 8 0 -7 11 11 17 37 13 5 -1 6 3 3 8 -4 5 -1 13 5 16 5 4 8 14 4 22
-4 13 -3 14 10 3 18 -15 20 0 3 19 -11 11 -9 11 9 2 20 -10 22 -9 16 6 -6 15
-4 16 9 5 13 -10 15 -8 10 15 -4 27 -4 27 12 8 15 -19 16 -19 9 -1 -5 15 -3
17 8 11 12 -8 12 -6 0 8 -12 15 -12 17 3 11 12 -5 15 -2 10 9 -4 12 -1 15 15
12 20 -4 25 4 22 35 -1 11 1 11 9 -2 6 -10 16 -18 23 -18 7 0 6 4 -3 10 -12 8
-11 11 8 16 20 6 21 8 6 18 -14 10 -11 12 15 10 17 -1 29 2 26 7 -9 13 17 48
32 42 9 -4 11 0 7 11 -6 16 10 23 19 9 2 -5 2 -2 1 5 -2 6 1 12 7 12 6 0 8 4
4 9 -3 5 0 13 6 17 7 4 9 3 6 -3 -4 -6 -1 -13 7 -16 23 -9 27 5 9 26 -10 11
-13 18 -7 14 14 -8 57 36 47 48 -5 4 -2 5 5 1 7 -4 10 -11 7 -16 -3 -5 0 -12
6 -16 8 -5 9 -3 4 6 -6 10 -4 12 10 6 18 -7 18 -6 0 14 -18 20 -18 21 0 14 12
-5 16 -4 11 4 -5 8 -1 10 10 5 13 -5 15 -3 9 7 -6 9 -4 12 6 8 15 -5 51 26 42
36 -4 3 -1 7 5 7 27 3 31 4 39 13 5 5 3 6 -4 2 -7 -4 -13 -2 -13 3 0 10 21 16
43 12 4 -1 3 8 -4 20 -9 17 -8 20 2 14 9 -6 10 -3 5 10 -5 15 -4 16 9 5 8 -7
12 -17 8 -23 -3 -6 -1 -7 6 -3 6 4 9 12 6 17 -4 5 -1 9 4 9 6 0 11 4 11 10 0
5 -8 7 -17 4 -15 -5 -15 -4 -3 4 10 8 19 7 30 -1 8 -6 12 -7 8 -3 -4 5 0 14 9
21 13 9 13 14 3 20 -9 5 -11 4 -6 -3 4 -7 2 -12 -4 -12 -7 0 -10 6 -7 13 2 6
12 11 23 10 22 -3 55 19 58 39 3 20 16 38 29 38 8 0 8 -3 -1 -12 -7 -7 -12
-16 -12 -22 0 -5 6 -1 14 9 8 11 12 24 9 28 -3 5 3 7 13 5 12 -2 18 2 16 11
-2 8 3 11 12 8 15 -6 16 9 3 30 -6 10 -2 11 17 3 17 -6 27 -6 32 2 4 7 3 8 -4
4 -7 -4 -12 -2 -12 3 0 6 6 11 13 11 9 0 9 2 -1 9 -11 6 -9 9 6 13 15 4 19 2
15 -9 -3 -9 5 -5 18 8 13 13 22 26 19 29 -3 3 -6 11 -8 19 -3 12 0 12 12 2 8
-7 19 -10 25 -7 13 8 6 42 -9 38 -6 -1 -8 3 -5 9 5 8 10 8 18 0 16 -16 26 -13
23 7 -2 9 4 28 13 42 15 23 15 24 -2 11 -15 -12 -17 -11 -17 5 0 16 -2 17 -10
4 -5 -8 -10 -11 -10 -6 0 5 7 17 15 26 13 14 12 16 -5 16 -10 0 -16 -5 -13
-11 4 -5 -3 -2 -14 8 -11 9 -20 24 -21 32 -1 8 -3 21 -4 29 -1 8 -8 12 -17 8
-14 -5 -14 -4 -2 11 8 10 11 20 7 24 -3 3 -6 0 -6 -7 0 -9 -5 -7 -16 6 -8 10
-12 12 -8 4 7 -13 5 -13 -9 -1 -15 12 -15 31 -1 31 3 0 2 -5 -2 -12 -4 -7 -3
-8 4 -4 17 10 15 26 -4 26 -9 0 -12 5 -8 13 5 7 0 6 -11 -3 -11 -9 -16 -10
-11 -2 4 6 3 12 -2 12 -6 0 -13 7 -16 16 -6 15 -4 15 11 3 16 -12 17 -12 6 2
-7 9 -9 19 -5 24 4 4 -3 2 -16 -4 -12 -7 -20 -17 -16 -23 4 -7 3 -8 -5 -4 -8
5 -6 15 8 35 15 21 17 28 6 28 -8 0 -12 -4 -9 -9 3 -4 0 -8 -5 -8 -6 0 -11 5
-11 11 0 5 -5 7 -12 3 -7 -5 -8 -3 -2 7 12 20 14 40 3 33 -5 -3 -6 -11 -2 -17
4 -7 0 -6 -10 2 -18 14 -23 26 -8 17 5 -3 11 0 14 8 4 9 0 12 -13 9 -10 -3
-21 1 -25 8 -5 7 -4 10 3 6 6 -5 8 1 4 15 -3 12 -7 17 -10 10 -2 -6 -8 -12
-13 -12 -6 0 -7 5 -4 10 3 6 -1 13 -9 16 -9 3 -16 11 -16 17 0 7 4 7 12 -1 7
-7 16 -12 21 -12 13 0 -19 29 -45 40 -23 11 -23 11 2 6 24 -5 24 -4 6 9 -10 8
-24 11 -30 8 -6 -4 -5 1 3 10 12 15 11 17 -10 18 -22 0 -23 1 -4 9 18 8 14 11
-15 13 -3 0 -13 8 -22 18 -19 21 -10 27 10 7 9 -9 12 -9 12 0 0 7 -5 12 -11
12 -5 0 -7 4 -4 10 3 6 -1 7 -9 4 -19 -7 -21 7 -3 26 10 12 9 12 -3 3 -12 -9
-21 -7 -40 9 -24 20 -24 20 -5 35 19 14 19 15 -5 8 -22 -7 -23 -6 -11 9 12 14
12 16 -2 11 -8 -4 -18 -1 -22 4 -3 6 -11 8 -17 5 -6 -4 -8 -2 -4 4 3 6 2 13
-4 17 -7 4 -7 12 0 25 11 21 -4 38 -16 19 -5 -8 -3 -9 6 -4 9 5 11 4 6 -4 -13
-21 -27 -1 -14 22 10 19 9 20 -4 9 -13 -10 -18 -9 -29 5 -8 9 -9 14 -2 10 6
-4 14 -3 18 3 3 5 1 10 -5 10 -6 0 -8 5 -4 13 5 7 0 6 -11 -3 -17 -14 -18 -13
-12 3 7 19 -3 22 -21 7 -9 -7 -9 -7 -3 1 7 8 2 18 -12 31 -12 11 -17 17 -11
14 7 -3 14 3 17 15 4 16 3 18 -9 8 -11 -9 -14 -8 -15 7 -1 11 -1 22 0 26 0 4
-6 5 -14 2 -8 -4 -12 -11 -8 -17 3 -6 1 -7 -6 -3 -9 6 -9 11 0 22 9 11 9 14
-1 14 -7 0 -10 6 -7 14 7 18 -12 36 -30 29 -12 -5 -14 -1 -9 15 6 18 4 21 -11
15 -16 -6 -17 -5 -3 12 9 11 10 16 3 11 -9 -4 -13 -1 -13 10 0 14 -2 15 -17 3
-15 -13 -15 -12 -5 8 9 16 9 24 0 29 -7 5 -8 3 -3 -6 6 -9 4 -11 -4 -5 -7 4
-11 15 -8 25 5 21 -19 35 -29 18 -4 -7 -3 -8 4 -4 7 4 12 2 12 -4 0 -7 -6 -10
-12 -7 -14 5 -14 9 -3 42 5 15 4 16 -3 6 -10 -14 -36 -6 -27 9 3 5 -3 11 -12
13 -16 4 -16 5 1 6 19 1 19 1 0 23 -12 15 -13 18 -3 10 13 -10 19 -9 28 2 10
11 8 17 -6 26 -15 9 -14 10 7 4 22 -6 23 -5 12 9 -10 12 -10 17 -1 23 8 5 9 3
4 -6 -5 -8 -4 -11 3 -6 6 4 8 14 5 23 -4 11 -3 14 5 9 8 -5 10 -2 6 9 -4 10
-2 15 6 13 7 -2 14 5 15 15 2 9 -1 15 -6 11 -5 -3 -7 -10 -4 -15 3 -5 -1 -6
-9 -3 -17 7 -8 20 29 43 19 11 18 12 -5 6 -19 -5 -21 -4 -10 4 8 6 16 15 16
21 1 5 2 15 3 20 0 6 9 10 19 10 16 1 16 1 0 11 -10 5 -18 15 -18 22 0 8 3 8
8 2 13 -18 28 -14 28 8 -1 13 4 21 12 19 10 -2 10 2 2 18 -10 19 -4 26 23 21
5 -1 6 3 2 9 -3 6 -12 7 -18 4 -7 -4 -3 2 8 13 11 11 22 19 25 17 3 -1 4 13 2
32 -2 19 1 41 8 49 6 8 8 20 4 26 -4 7 -3 9 4 5 6 -3 13 -2 17 4 4 6 11 7 17
4 7 -4 8 -2 4 5 -4 6 -13 8 -19 5 -7 -4 -9 -4 -5 1 4 4 2 15 -5 23 -7 10 -8
13 -1 9 15 -9 38 19 28 34 -4 8 -3 9 4 5 8 -5 11 2 8 22 -2 18 2 29 10 29 9 0
10 -5 4 -18 -7 -12 -5 -21 8 -30 15 -13 16 -12 3 4 -9 12 -10 17 -2 17 7 0 10
4 6 9 -3 5 -1 12 4 16 7 4 7 15 0 32 -9 24 -8 25 8 12 9 -8 14 -9 10 -2 -4 7
0 17 10 23 17 11 17 11 0 6 -12 -4 -17 -2 -14 6 2 7 11 13 18 12 8 -1 15 7 15
17 0 14 -3 16 -15 6 -12 -10 -12 -9 -1 10 8 12 19 19 25 15 5 -3 4 2 -3 11
-12 14 -11 16 7 12 14 -2 18 1 14 11 -3 7 -10 11 -17 7 -6 -3 -3 3 8 15 10 12
23 19 29 15 6 -3 7 -1 3 5 -4 6 -14 9 -24 6 -15 -5 -15 -4 2 10 10 8 15 20 11
28 -4 7 3 2 15 -12 l21 -25 -16 32 c-13 27 -13 32 -1 27 11 -4 13 0 9 15 -4
15 -1 21 11 21 10 0 14 5 11 10 -4 6 -11 7 -17 4 -7 -4 -8 -2 -4 4 4 6 12 9
20 6 7 -3 13 2 13 10 0 9 -6 12 -16 8 -14 -5 -14 -4 -1 10 8 9 17 14 20 13 4
-2 12 6 20 18 12 20 12 21 -4 8 -14 -12 -19 -12 -29 -1 -9 10 -9 11 1 6 8 -5
22 2 38 19 20 22 22 29 12 48 -10 19 -9 21 4 9 13 -10 18 -10 24 -1 5 8 3 9
-6 4 -9 -6 -10 -2 -5 15 6 17 4 21 -6 14 -11 -6 -11 -4 0 10 8 9 20 15 27 12
8 -3 11 0 8 9 -3 8 -11 13 -17 11 -7 -1 -9 -1 -4 1 4 3 4 9 1 15 -4 7 0 7 13
0 17 -9 19 -7 17 19 -1 17 0 28 3 25 13 -13 31 29 22 51 -5 14 -4 25 3 29 7 4
8 3 4 -4 -5 -8 -1 -10 10 -5 15 5 15 7 0 15 -9 5 -22 6 -29 1 -6 -4 -3 6 7 22
l19 30 -26 -24 c-23 -21 -27 -22 -33 -8 -3 9 -3 21 1 27 4 6 3 10 -2 9 -4 -1
-10 0 -13 1 -17 6 -49 12 -70 12 -14 0 -19 3 -12 5 13 5 17 24 5 22 -5 -1 -15
-1 -23 1 -11 1 -9 4 5 10 16 7 17 9 3 9 -9 1 -22 -7 -28 -16 -8 -15 -9 -13 -6
11 5 28 5 28 -16 10 -12 -11 -18 -13 -14 -7 4 7 0 23 -10 35 -15 20 -16 21
-10 3 4 -14 0 -12 -15 8 -13 18 -25 25 -33 19 -27 -20 -44 -5 -48 45 -1 8 -9
8 -24 3 -15 -6 -26 -5 -30 1 -3 6 -13 8 -21 5 -8 -3 -11 -1 -8 4 3 6 1 10 -4
10 -6 0 -11 5 -11 11 0 8 4 8 14 0 11 -9 16 -9 22 0 4 7 3 9 -4 5 -6 -3 -14
-2 -17 4 -5 8 -11 7 -21 -1 -12 -10 -13 -9 -8 5 7 18 -15 19 -27 2 -4 -5 -10
1 -14 14 -5 15 -13 20 -26 17 -21 -6 -44 17 -34 33 4 6 3 10 -2 9 -20 -4 -27
2 -13 12 13 9 13 10 0 6 -8 -2 -14 -13 -13 -23 2 -16 1 -15 -9 4 -6 12 -15 22
-20 22 -5 0 -7 -4 -4 -8 3 -5 -1 -9 -9 -9 -11 0 -12 4 -4 14 8 9 8 13 0 14
-11 2 -25 5 -38 9 -5 1 -11 2 -14 2 -4 -1 -5 9 -2 21 4 21 4 21 -10 4 -13 -16
-15 -16 -21 -2 -3 9 -10 13 -16 10 -5 -3 -10 -1 -10 4 0 14 13 14 26 1 7 -7
11 -6 11 4 0 8 -3 15 -6 14 -28 -3 -51 4 -45 13 4 8 0 8 -15 0 -11 -7 -21 -8
-21 -3 0 5 -9 19 -20 32 -11 13 -20 18 -20 12 0 -7 -5 -12 -12 -12 -6 0 -9 3
-5 6 3 3 -5 18 -19 32 -21 24 -26 25 -45 14 -12 -8 -18 -9 -14 -3 11 19 -5 33
-23 19 -10 -7 -14 -8 -10 -4 4 5 0 15 -10 23 -13 10 -13 12 -2 10 8 -2 12 -2
7 0 -4 3 -4 10 -1 16 5 8 2 8 -7 0 -16 -15 -33 -17 -24 -3 9 14 -9 12 -24 -2
-7 -7 -12 -8 -11 -3 4 21 0 35 -11 35 -6 0 -20 10 -31 23 -11 12 -17 17 -14
10 4 -6 2 -14 -4 -18 -9 -6 -15 17 -10 40 1 6 -2 7 -6 3 -4 -4 -13 -3 -21 3
-7 6 -13 8 -13 3 0 -5 -5 -2 -11 6 -9 13 -10 13 -6 0 2 -8 9 -15 15 -15 6 0
17 -6 24 -13 11 -11 9 -12 -7 -6 -11 4 -27 13 -36 21 -9 7 -19 10 -24 6 -4 -5
-2 3 5 17 12 23 12 24 -3 11 -11 -9 -17 -10 -17 -2 0 6 -5 11 -11 11 -5 0 -7
-5 -3 -12 4 -7 3 -8 -4 -4 -6 4 -8 14 -5 24 6 14 4 15 -9 4 -12 -9 -18 -10
-23 -2 -5 8 -12 7 -23 -2 -15 -12 -15 -11 -4 4 11 14 10 18 -6 27 -11 6 -22 8
-25 5 -8 -8 -3 19 6 33 4 7 3 21 -3 32 -15 29 -12 38 5 15 13 -18 14 -18 8 5
-5 18 -3 22 7 16 8 -5 11 -4 6 3 -4 6 -12 9 -19 6 -8 -3 -12 7 -12 30 0 19 3
32 7 30 4 -3 8 -1 8 5 0 5 -7 14 -16 19 -15 8 -15 10 0 15 13 5 14 12 6 32 -7
17 -7 24 0 20 6 -3 10 -2 10 4 0 5 -5 11 -12 13 -7 3 -8 9 -3 18 12 19 14 51
3 44 -4 -3 -8 5 -8 18 0 18 2 20 10 8 7 -12 9 -10 7 8 -1 12 -6 21 -12 18 -9
-3 -13 37 -5 54 1 3 1 20 0 39 -1 24 2 31 11 26 8 -5 10 -4 5 4 -4 6 -10 9
-14 7 -4 -2 -13 3 -21 11 -12 13 -11 14 7 9 12 -4 23 -2 28 5 5 8 3 9 -6 4
-10 -6 -12 -4 -7 8 3 10 2 17 -2 17 -5 0 -12 7 -15 16 -5 14 -4 15 9 4 13 -11
14 -10 9 4 -3 9 -10 16 -14 16 -4 0 -10 7 -14 15 -5 13 -2 14 17 4 12 -6 19
-8 15 -4 -4 5 -3 14 4 22 9 11 7 15 -11 20 -17 4 -19 8 -9 14 10 7 9 9 -4 9
-9 0 -20 5 -24 11 -4 7 0 9 13 5 14 -4 20 -2 20 9 0 9 -6 14 -14 11 -8 -3 -11
-1 -8 5 4 5 1 17 -7 26 -11 14 -11 16 1 9 9 -6 12 -5 9 5 -3 8 2 20 11 27 9 8
10 11 4 7 -14 -7 -18 7 -6 19 11 10 12 35 3 41 -5 3 -7 -4 -5 -15 3 -13 -1
-20 -12 -20 -12 0 -13 3 -4 13 6 8 8 16 6 19 -10 10 -14 49 -4 43 5 -4 6 -12
3 -18 -4 -7 -4 -9 1 -5 4 4 15 2 24 -5 8 -6 3 4 -11 23 -26 35 -31 61 -13 77
4 4 5 2 0 -6 -5 -10 -4 -12 4 -7 6 4 8 13 4 19 -14 23 -12 39 5 33 15 -5 15
-5 0 7 -10 8 -15 17 -11 20 3 4 1 7 -5 7 -7 0 -12 5 -12 11 0 6 7 9 15 5 13
-4 14 -2 5 14 -6 11 -8 20 -5 20 3 0 1 9 -5 19 -6 12 -6 22 -1 26 17 10 8 46
-9 40 -9 -3 -8 1 4 10 11 8 16 15 10 15 -5 0 -15 10 -23 23 l-14 22 24 -20 23
-20 -18 28 c-18 29 -18 29 6 23 12 -3 17 -3 10 0 -6 3 -9 10 -6 16 4 6 -2 8
-17 4 -13 -3 -18 -3 -11 0 6 3 12 15 12 25 0 11 4 18 8 15 4 -2 8 6 8 19 0 13
-4 21 -8 19 -4 -3 -8 1 -8 10 0 8 3 16 8 19 4 2 2 2 -5 1 -7 -2 -15 1 -18 6
-4 6 1 10 10 10 9 0 13 5 10 10 -4 6 -14 9 -23 8 -12 -2 -17 4 -16 17 1 14 -5
21 -17 21 -13 0 -15 -4 -8 -12 7 -8 6 -15 -3 -20 -7 -4 -10 -4 -6 1 4 4 1 14
-7 21 -16 16 -29 19 -20 4 3 -5 1 -10 -4 -10 -6 0 -11 5 -11 12 0 9 -3 9 -12
0 -10 -10 -16 -8 -29 10 -15 20 -19 20 -35 8 -9 -8 -18 -13 -20 -10 -1 3 -6 2
-10 -2 -3 -4 3 -5 15 -3 12 2 19 0 16 -5 -8 -13 -40 -5 -41 11 -3 43 -4 45
-13 30 -5 -8 -7 -20 -4 -27 2 -6 -1 -15 -8 -20 -7 -4 -10 -3 -6 3 8 13 -22 55
-34 47 -5 -3 -7 -9 -5 -13 3 -4 -1 -8 -9 -8 -8 0 -12 4 -9 9 8 13 -10 9 -36
-9 -14 -9 -19 -10 -12 -3 16 18 16 38 0 22 -15 -15 -31 -16 -22 0 5 7 3 8 -7
2 -8 -4 -22 -10 -33 -11 -16 -3 -17 -1 -6 12 11 13 10 14 -5 9 -10 -4 -21 -1
-27 7 -7 10 -8 8 -3 -8 4 -14 2 -23 -5 -23 -6 0 -8 5 -5 11 9 13 -27 8 -38 -6
-5 -6 -7 -4 -4 5 2 8 9 15 15 15 7 0 12 3 12 8 0 4 0 10 0 13 0 4 -7 0 -17 -7
-9 -8 -19 -14 -22 -14 -3 0 -5 -4 -3 -8 1 -5 -2 -6 -8 -2 -6 3 -8 10 -5 15 3
4 -2 10 -10 13 -9 4 -12 1 -9 -7 3 -8 0 -17 -7 -22 -8 -4 -10 -3 -5 4 4 7 3
12 -3 12 -6 0 -8 8 -5 18 5 14 4 15 -5 2 -9 -13 -14 -13 -32 -2 -11 8 -18 9
-15 4 10 -17 -23 -22 -38 -6 -10 9 -24 12 -41 8 -19 -5 -25 -2 -25 11 0 9 -5
13 -10 10 -7 -4 -6 -14 1 -28 10 -20 9 -19 -13 3 -12 14 -32 26 -43 27 -11 1
-30 4 -43 7 -12 3 -20 1 -17 -4 3 -5 1 -11 -5 -15 -5 -3 -10 0 -10 8 0 11 -9
13 -40 7 -36 -7 -39 -6 -28 8 11 13 10 15 -5 9 -10 -4 -21 -7 -23 -7 -3 0 -3
-4 0 -8 3 -5 -1 -9 -9 -9 -10 0 -11 5 -4 19 5 10 15 18 21 18 6 0 9 3 5 6 -3
3 -20 -4 -37 -16 -17 -12 -34 -19 -37 -16 -4 3 -1 6 5 6 7 0 12 5 12 10 0 7
-6 7 -19 0 -14 -7 -22 -7 -27 2 -4 6 -3 8 4 4 6 -3 13 -2 16 3 4 5 2 12 -3 15
-5 4 -12 2 -16 -4 -4 -7 -13 -7 -26 0 -10 6 -19 7 -18 3 3 -20 -2 -27 -11 -13
-7 11 -10 12 -10 2 0 -10 -4 -10 -15 2 -9 8 -23 12 -32 9 -10 -4 -14 -2 -10 4
3 5 0 10 -7 10 -8 0 -12 -6 -9 -13 3 -9 -2 -11 -17 -7 -17 5 -19 8 -8 15 10 8
9 9 -4 4 -10 -3 -22 2 -27 12 -14 24 -13 5 1 -21 10 -19 9 -20 -4 -10 -8 7
-19 9 -23 5 -5 -4 -5 -1 -1 6 4 6 2 12 -4 12 -6 0 -8 5 -4 12 5 7 3 8 -5 4 -7
-5 -10 -14 -7 -22 3 -8 1 -14 -4 -14 -6 0 -10 7 -10 16 0 13 -3 14 -14 5 -11
-9 -16 -9 -22 0 -4 8 -3 9 4 5 7 -4 12 -2 12 3 0 14 -17 14 -26 0 -5 -8 -8 -8
-13 0 -11 17 -51 23 -45 7 3 -7 -2 -13 -10 -13 -8 0 -13 4 -10 9 5 8 -17 12
-45 9 -8 -2 -10 2 -5 10 5 8 3 9 -7 3 -20 -12 -39 -14 -39 -3 0 6 -3 8 -7 6
-5 -3 -9 9 -10 25 -3 38 -9 44 -28 28 -10 -8 -15 -9 -15 -1 0 6 4 11 8 11 4 0
8 9 9 19 1 13 -8 24 -25 30 l-27 11 30 -5 c17 -2 24 -2 17 1 -6 3 -9 11 -6 16
4 7 2 8 -5 4 -20 -13 -42 13 -30 35 6 13 6 19 0 19 -17 0 -51 42 -51 62 0 10
-9 29 -20 41 -12 12 -20 31 -18 42 1 11 -5 31 -14 44 -10 13 -14 29 -11 34 3
6 1 7 -6 3 -9 -6 -8 -14 4 -34 l16 -27 -19 22 c-11 12 -21 21 -23 20 -3 -1 -1
2 3 8 12 14 9 27 -4 19 -8 -5 -7 0 2 11 9 11 10 16 3 11 -9 -5 -13 0 -13 13 0
12 -4 21 -9 21 -5 0 -14 14 -21 31 -11 26 -11 32 1 40 8 5 9 9 3 9 -5 0 -16
-6 -23 -12 -11 -11 -13 -9 -8 9 4 17 1 20 -12 16 -12 -3 -11 0 4 13 17 14 17
16 3 11 -12 -4 -18 -1 -18 8 0 8 -4 15 -10 15 -5 0 -10 5 -10 11 0 5 5 7 12 3
6 -4 8 -3 4 4 -3 6 -14 9 -24 7 -13 -2 -18 3 -18 21 0 18 4 23 16 19 11 -4 11
-2 -2 8 -10 8 -15 17 -11 20 3 4 -3 5 -14 3 -15 -3 -20 1 -19 17 1 12 5 28 10
35 4 7 4 12 -1 11 -21 -4 -33 2 -33 17 0 8 -4 13 -9 10 -5 -3 -11 1 -14 8 -4
11 0 13 15 11 11 -3 17 -1 14 3 -4 4 -13 7 -19 7 -7 0 -11 8 -11 18 2 14 -3
16 -19 11 -20 -6 -21 -5 -7 11 8 11 10 16 4 12 -7 -4 -15 0 -18 9 -3 8 -2 12
3 9 5 -3 13 0 17 7 4 7 4 10 0 6 -9 -8 -46 27 -46 45 0 8 4 7 10 -3 6 -9 10
-10 10 -3 0 21 -18 24 -30 6 -9 -15 -10 -15 -4 6 3 14 2 21 -3 18 -9 -6 -13 6
-14 45 0 9 -8 23 -17 30 -15 12 -16 11 -3 -4 7 -10 9 -18 3 -18 -16 0 -22 26
-9 40 7 7 8 10 2 8 -5 -3 -16 0 -23 8 -8 9 -9 14 -2 14 6 0 8 5 5 10 -4 6 -11
8 -16 5 -5 -3 -6 2 -2 11 4 12 3 15 -5 10 -12 -7 -16 5 -12 33 1 9 -4 12 -14
8 -9 -4 -15 -1 -13 6 1 7 -4 11 -11 9 -8 -1 -11 2 -7 8 5 8 12 7 23 -2 15 -12
16 -11 4 4 -8 9 -11 21 -8 26 3 5 -1 9 -9 9 -8 0 -11 -5 -8 -10 4 -6 1 -7 -7
-2 -10 6 -9 11 6 23 18 13 18 14 -5 7 -15 -5 -21 -3 -17 3 3 5 -2 13 -11 16
-9 4 -20 1 -25 -6 -7 -12 -12 -4 -9 15 1 5 -3 6 -9 2 -6 -3 -8 -10 -6 -14 3
-4 -9 -18 -26 -31 -17 -12 -28 -18 -24 -11 4 6 2 11 -4 11 -6 0 -8 6 -4 13 4
6 -1 5 -12 -4 -33 -27 -42 -30 -57 -14 -13 13 -16 13 -21 -1 -3 -8 -2 -13 2
-10 4 2 9 -5 9 -17 2 -17 0 -19 -7 -7 -12 19 -33 20 -42 0 -5 -12 -7 -12 -7 3
-1 9 -6 17 -12 17 -6 0 -8 -7 -5 -16 3 -8 2 -12 -4 -9 -6 3 -10 0 -11 -7 -1
-7 -5 -2 -9 12 -6 18 -8 20 -9 7 -1 -10 -6 -15 -11 -12 -6 4 -8 11 -5 16 10
15 -2 10 -16 -8 -12 -14 -12 -16 0 -8 10 6 12 4 7 -4 -5 -7 -15 -10 -23 -7 -9
4 -21 2 -28 -4 -7 -6 -29 -9 -49 -7 -20 2 -39 1 -41 -4 -3 -4 -14 -6 -25 -4
-12 2 -18 0 -15 -5 3 -5 14 -7 25 -5 12 2 18 0 15 -5 -3 -4 1 -11 7 -13 9 -4
10 -6 1 -6 -6 -1 -15 4 -18 10 -5 7 -14 4 -28 -8 -20 -16 -20 -16 -8 0 12 15
11 17 -7 14 -12 -2 -25 -7 -29 -12 -5 -4 -2 -5 4 -1 9 5 11 2 7 -8 -5 -12 -9
-13 -19 -3 -7 7 -10 16 -7 21 3 5 0 6 -7 2 -6 -4 -8 -12 -5 -18 4 -6 1 -8 -7
-6 -8 3 -13 12 -11 19 1 8 -10 1 -25 -16 -14 -16 -31 -28 -37 -27 -32 11 -56
11 -56 2 0 -6 6 -8 13 -4 9 5 9 4 0 -6 -15 -16 -46 -23 -37 -8 4 6 1 8 -7 6
-8 -3 -13 -11 -11 -18 2 -11 0 -11 -11 -1 -11 9 -21 9 -43 -1 -16 -6 -40 -12
-54 -13 -46 -4 -50 -5 -50 -16 0 -6 5 -7 13 -2 18 11 38 13 31 2 -3 -5 -9 -7
-14 -4 -5 3 -11 1 -14 -3 -3 -5 -17 -7 -31 -4 -14 2 -31 -1 -39 -7 -11 -9 -16
-9 -22 0 -4 8 -3 9 4 5 8 -5 10 -1 5 9 -8 23 -22 -1 -16 -29 4 -19 3 -19 -12
4 -9 14 -14 18 -12 9 3 -9 1 -22 -4 -30 -7 -11 -9 -11 -9 -1 0 7 -4 10 -10 7
-5 -3 -10 -1 -10 5 0 7 7 10 14 7 10 -4 13 -1 9 9 -5 13 -10 12 -28 -8 -12
-13 -20 -27 -17 -32 3 -5 0 -6 -7 -2 -9 6 -9 12 1 24 12 15 11 16 -4 4 -9 -8
-23 -10 -29 -6 -9 5 -10 2 -6 -9 3 -10 2 -17 -3 -17 -6 0 -10 3 -10 8 0 4 -15
8 -32 8 -18 1 -27 -1 -20 -3 6 -3 12 -12 12 -20 0 -13 -2 -13 -17 -2 -9 8 -14
9 -10 3 4 -7 -2 -11 -16 -10 -34 1 -107 -26 -100 -37 3 -6 1 -7 -5 -3 -6 4
-10 12 -8 19 1 7 1 9 -1 5 -3 -5 -12 -8 -20 -8 -13 0 -13 -3 -2 -17 10 -14 8
-13 -10 2 -14 11 -22 16 -19 10 3 -5 0 -16 -8 -23 -9 -8 -14 -9 -14 -2 0 6 -5
8 -12 4 -7 -4 -8 -3 -4 5 4 6 12 9 17 6 5 -4 9 -1 9 4 0 16 -15 13 -30 -4 -6
-8 -8 -20 -4 -27 6 -10 3 -9 -9 1 -9 7 -17 10 -17 5 0 -4 -14 5 -31 22 -19 18
-28 22 -24 11 4 -10 3 -17 -4 -17 -6 0 -11 5 -11 10 0 6 -5 10 -11 10 -5 0 -7
-4 -4 -10 3 -5 1 -10 -4 -10 -15 0 -14 13 2 29 8 9 8 12 0 7 -6 -3 -27 10 -46
30 -25 27 -36 33 -42 24 -6 -9 -4 -11 5 -5 8 5 11 4 6 -3 -4 -6 -13 -9 -21 -6
-8 4 -13 9 -11 13 2 3 -2 17 -11 31 -8 14 -12 17 -9 7 3 -10 2 -16 -3 -12 -5
3 -11 2 -14 -2 -2 -5 -3 -3 -1 3 1 6 -3 17 -9 24 -9 10 -9 11 0 6 6 -3 14 -2
18 3 3 6 -3 8 -14 6 -11 -2 -29 4 -39 13 -10 9 -11 13 -2 7 13 -9 13 -8 1 7
-10 14 -17 15 -33 7 -13 -7 -18 -7 -14 -1 3 6 3 12 -1 15 -5 2 -1 2 7 0 9 -3
11 -1 5 4 -5 5 -22 19 -36 31 -20 17 -29 20 -34 11 -5 -7 -4 -10 3 -5 6 3 13
2 16 -3 4 -5 -2 -8 -11 -7 -10 2 -18 8 -18 14 0 6 -9 19 -21 29 -11 10 -19 25
-17 33 4 13 3 13 -7 0 -9 -11 -13 -12 -17 -2 -2 6 -9 9 -15 6 -6 -4 -8 2 -4
17 6 21 6 22 -5 5 -6 -10 -14 -14 -18 -9 -3 4 -18 16 -33 26 -18 11 -25 23
-21 32 3 9 2 15 -3 14 -22 -4 -35 2 -28 14 6 10 4 10 -7 0 -20 -19 -31 -16
-24 7 5 15 3 18 -9 14 -13 -5 -15 -2 -9 12 6 17 5 17 -11 5 -9 -8 -16 -10 -15
-5 3 18 -1 34 -8 33 -19 -3 -33 2 -33 12 0 5 5 7 12 3 7 -4 8 -3 4 4 -4 6 -13
9 -21 6 -8 -4 -12 -11 -8 -18 4 -6 -1 -5 -10 3 -10 8 -15 16 -12 19 6 6 -43
52 -56 52 -6 0 -7 5 -3 11 3 6 -1 10 -12 9 -33 -4 -37 0 -23 18 7 9 9 13 4 9
-5 -4 -15 3 -23 15 -11 19 -12 19 -7 3 5 -15 3 -17 -6 -8 -6 6 -19 9 -28 5
-14 -5 -14 -4 -1 13 9 11 10 16 3 11 -7 -4 -13 -3 -13 3 0 5 6 11 13 14 6 3 2
4 -10 4 -12 -1 -19 -6 -16 -12 3 -5 0 -5 -7 2 -11 10 -11 15 0 30 12 15 12 16
0 6 -19 -17 -33 -16 -27 1 4 10 1 13 -8 9 -8 -3 -12 -10 -8 -17 3 -6 -6 0 -20
13 -27 25 -38 43 -14 22 10 -8 14 -7 14 4 0 7 -3 14 -6 13 -21 -2 -31 4 -25
15 5 9 4 9 -6 0 -19 -17 -56 3 -40 22 9 11 7 12 -12 7 -21 -5 -22 -4 -8 14 15
18 14 18 -12 1 -26 -16 -27 -16 -23 4 3 15 0 19 -10 15 -9 -3 -12 0 -8 10 4
10 0 12 -11 8 -12 -5 -15 -2 -9 12 5 14 3 16 -11 11 -11 -5 -15 -3 -10 5 5 8
2 9 -10 5 -14 -6 -17 -3 -12 9 6 15 4 15 -10 3 -16 -13 -16 -12 -5 9 12 22 11
28 -3 15z m-219 -189 c-3 -3 -12 -4 -19 -1 -8 3 -5 6 6 6 11 1 17 -2 13 -5z
m1003 -440 c0 -8 -19 -13 -24 -6 -3 5 1 9 9 9 8 0 15 -2 15 -3z m-3085 -13 c3
-5 2 -12 -3 -15 -5 -3 -9 1 -9 9 0 17 3 19 12 6z m1454 -14 c-2 -1 -14 -11
-26 -21 -13 -11 -23 -16 -23 -13 0 10 31 37 42 37 6 0 9 -1 7 -3z m2902 -50
c-10 -9 -11 -8 -5 6 3 10 9 15 12 12 3 -3 0 -11 -7 -18z m-3977 -39 c-3 -4 -9
-8 -15 -8 -5 0 -9 4 -9 8 0 5 7 9 15 9 8 0 12 -4 9 -9z m2851 -7 c3 -5 2 -12
-3 -15 -5 -3 -9 1 -9 9 0 17 3 19 12 6z m965 -1 c0 -5 -2 -10 -4 -10 -3 0 -8
5 -11 10 -3 6 -1 10 4 10 6 0 11 -4 11 -10z m-811 -109 c-1 -13 -2 -13 -6 2
-2 9 -9 17 -14 17 -5 0 -9 5 -9 11 0 8 5 8 15 -1 8 -7 14 -20 14 -29z m-2585
7 c-2 -3 -13 -6 -24 -5 -24 2 -18 13 9 13 11 0 18 -4 15 -8z m326 -53 c-7 -8
-17 -15 -23 -15 -6 0 -2 7 9 15 25 19 30 19 14 0z m2368 -21 c3 -18 2 -18 -8
-1 -6 9 -16 14 -22 11 -7 -4 -8 -2 -4 5 11 17 30 8 34 -15z m1759 -139 c0 -8
-4 -12 -9 -9 -5 3 -6 10 -3 15 9 13 12 11 12 -6z m117 -243 c3 -5 -1 -9 -9 -9
-8 0 -12 4 -9 9 3 4 7 8 9 8 2 0 6 -4 9 -8z m361 -542 c3 -5 1 -10 -4 -10 -6
0 -11 5 -11 10 0 6 2 10 4 10 3 0 8 -4 11 -10z m305 -40 c0 -5 -5 -10 -11 -10
-5 0 -7 5 -4 10 3 6 8 10 11 10 2 0 4 -4 4 -10z m-7613 -14 c0 -8 -6 -12 -15
-9 -11 5 -11 7 0 14 7 5 13 9 14 9 0 0 1 -6 1 -14z m28 5 c3 -5 2 -12 -3 -15
-5 -3 -9 1 -9 9 0 17 3 19 12 6z m7666 -8 c13 -16 12 -17 -3 -4 -17 13 -22 21
-14 21 2 0 10 -8 17 -17z m286 -39 c-3 -3 -12 -4 -19 -1 -8 3 -5 6 6 6 11 1
17 -2 13 -5z m96 -19 c-3 -9 -8 -14 -10 -11 -3 3 -2 9 2 15 9 16 15 13 8 -4z
m-8579 -23 c3 -5 -1 -9 -9 -9 -8 0 -12 4 -9 9 3 4 7 8 9 8 2 0 6 -4 9 -8z
m9004 -27 c-3 -3 -9 2 -12 12 -6 14 -5 15 5 6 7 -7 10 -15 7 -18z m112 -10 c0
-8 -2 -15 -4 -15 -2 0 -6 7 -10 15 -3 8 -1 15 4 15 6 0 10 -7 10 -15z m170
-118 c0 -2 -10 -12 -22 -23 -14 -12 -18 -13 -10 -3 6 9 9 19 5 22 -3 4 1 7 10
7 10 0 17 -2 17 -3z m-9804 -19 c4 -7 3 -8 -4 -4 -15 9 -15 -7 -1 -21 10 -10
0 -12 -29 -4 -4 1 18 41 23 41 2 0 7 -5 11 -12z m-12 -83 c-9 -14 -18 -25 -21
-25 -5 0 5 18 20 38 17 22 18 13 1 -13z m9806 -145 c0 -5 -5 -10 -11 -10 -5 0
-7 5 -4 10 3 6 8 10 11 10 2 0 4 -4 4 -10z m50 -444 c0 -11 -19 -15 -25 -6 -3
5 1 10 9 10 9 0 16 -2 16 -4z m-9898 -253 c-10 -4 -10 -8 0 -21 12 -15 11 -16
-4 -3 -19 14 -15 32 5 30 8 0 8 -2 -1 -6z m8 -139 c0 -8 -19 -13 -24 -6 -3 5
1 9 9 9 8 0 15 -2 15 -3z m-16 -262 c3 -5 -1 -9 -9 -9 -8 0 -15 4 -15 9 0 4 4
8 9 8 6 0 12 -4 15 -8z m-142 -79 c-6 -3 -9 -10 -6 -15 4 -7 2 -8 -4 -4 -7 4
-12 2 -12 -5 0 -7 -3 -9 -7 -6 -3 4 2 16 12 27 10 11 21 17 24 14 3 -4 0 -9
-7 -11z m36 -8 c-3 -3 -9 2 -12 12 -6 14 -5 15 5 6 7 -7 10 -15 7 -18z m-88
-30 c-7 -9 -15 -13 -17 -11 -7 7 7 26 19 26 6 0 6 -6 -2 -15z m-123 -70 c0 -8
-4 -12 -9 -9 -5 3 -6 10 -3 15 9 13 12 11 12 -6z m10661 -76 c3 -11 2 -11 -7
1 -10 13 -12 13 -21 0 -5 -8 -10 -10 -10 -4 0 27 31 30 38 3z m-10778 -13 c0
-3 -4 -8 -10 -11 -5 -3 -10 -1 -10 4 0 6 5 11 10 11 6 0 10 -2 10 -4z m-340
-191 c-7 -8 -16 -13 -20 -10 -5 3 -11 0 -13 -5 -4 -7 -5 -6 -4 1 2 6 6 9 10 7
5 -2 13 5 19 15 5 10 12 16 15 13 3 -3 0 -12 -7 -21z m11640 -99 c0 -2 -7 -7
-16 -10 -8 -3 -12 -2 -9 4 6 10 25 14 25 6z m75 -57 c-4 -5 -12 -9 -18 -8 -9
0 -8 2 1 6 6 2 9 10 6 15 -4 7 -2 8 5 4 6 -4 9 -12 6 -17z m199 -107 c3 -5 -1
-9 -9 -9 -8 0 -12 4 -9 9 3 4 7 8 9 8 2 0 6 -4 9 -8z m-12414 -106 c0 -3 -4
-8 -10 -11 -5 -3 -10 -1 -10 4 0 6 5 11 10 11 6 0 10 -2 10 -4z m12475 -6 c-3
-5 -10 -10 -16 -10 -5 0 -9 5 -9 10 0 6 7 10 16 10 8 0 12 -4 9 -10z m-82
-196 c-6 -16 -23 -19 -23 -4 0 6 5 10 11 10 8 0 7 6 -2 18 -13 15 -12 16 3 4
9 -8 14 -20 11 -28z m-293 -684 c0 -5 -10 -15 -22 -21 l-23 -12 20 21 c23 24
25 25 25 12z m-59 -93 c-10 -9 -11 -8 -5 6 3 10 9 15 12 12 3 -3 0 -11 -7 -18z
m-11532 -349 c-8 -7 -23 -22 -33 -33 -14 -15 -13 -11 3 13 12 17 27 32 34 32
6 0 5 -5 -4 -12z m11575 -176 c3 -5 -1 -9 -9 -9 -8 0 -12 4 -9 9 3 4 7 8 9 8
2 0 6 -4 9 -8z m-11830 -180 c3 -5 -1 -9 -9 -9 -8 0 -12 4 -9 9 3 4 7 8 9 8 2
0 6 -4 9 -8z m-284 -417 c0 -1 -6 -7 -13 -13 -10 -8 -13 -6 -13 7 0 11 6 17
13 14 7 -3 13 -6 13 -8z m-100 -124 c0 -5 -7 -12 -16 -15 -14 -5 -15 -4 -4 9
14 17 20 19 20 6z m-53 -82 c-9 -6 -15 -14 -12 -20 4 -5 1 -9 -4 -9 -6 0 -11
4 -11 8 0 12 22 32 35 32 5 0 2 -5 -8 -11z m-127 -200 c0 -5 5 -7 12 -3 7 4 8
3 4 -5 -6 -9 -11 -9 -22 0 -17 14 -18 19 -4 19 6 0 10 -5 10 -11z m12995 -81
c5 4 5 1 1 -6 -6 -10 -11 -10 -22 -1 -8 6 -14 14 -14 16 0 3 6 0 13 -6 8 -6
18 -7 22 -3z m-114 -105 c13 -16 12 -17 -3 -4 -17 13 -22 21 -14 21 2 0 10 -8
17 -17z m-77 -74 c-9 -11 -20 -17 -23 -13 -3 3 2 10 12 15 9 6 14 15 11 21 -5
7 -2 8 5 4 9 -6 8 -13 -5 -27z m-204 -179 c0 -5 -5 -10 -11 -10 -5 0 -7 5 -4
10 3 6 8 10 11 10 2 0 4 -4 4 -10z m-480 -442 c0 6 5 12 11 12 8 0 8 -5 -1
-15 -13 -16 -30 -11 -30 8 0 7 4 6 10 -3 6 -10 10 -11 10 -2z m-70 -462 c0 -2
-8 -10 -17 -17 -16 -13 -17 -12 -4 4 13 16 21 21 21 13z m40 -180 c0 -2 -7 -7
-16 -10 -8 -3 -12 -2 -9 4 6 10 25 14 25 6z m-11097 -51 c-3 -9 -8 -14 -10
-11 -3 3 -2 9 2 15 9 16 15 13 8 -4z m11114 -90 c0 -8 -4 -12 -9 -9 -4 3 -8 9
-8 15 0 5 4 9 8 9 5 0 9 -7 9 -15z m18 -55 c3 -6 -1 -7 -9 -4 -18 7 -21 14 -7
14 6 0 13 -4 16 -10z m-11180 -113 c-8 -13 -12 -27 -8 -30 3 -4 -1 -7 -11 -7
-16 0 -15 3 4 30 25 35 37 41 15 7z m11195 19 c0 -3 -4 -8 -10 -11 -5 -3 -10
-1 -10 4 0 6 5 11 10 11 6 0 10 -2 10 -4z m22 -131 c0 -5 -5 -10 -11 -11 -8
-2 -7 -1 0 3 8 4 7 8 -2 15 -11 8 -11 9 -1 6 8 -2 14 -8 14 -13z m-11293 -349
c8 -10 9 -16 1 -21 -6 -4 -9 -1 -8 7 2 7 -3 12 -10 10 -8 -1 -11 2 -7 8 8 13
10 13 24 -4z m149 -211 c-3 -3 -9 2 -12 12 -6 14 -5 15 5 6 7 -7 10 -15 7 -18z
m115 -30 c-3 -9 -8 -14 -10 -11 -3 3 -2 9 2 15 9 16 15 13 8 -4z m10667 -39
c0 -2 -7 -7 -16 -10 -8 -3 -12 -2 -9 4 6 10 25 14 25 6z m-184 -78 c5 4 5 3 1
-3 -5 -5 -12 -10 -15 -10 -4 -1 -17 -6 -29 -13 -13 -7 -23 -10 -23 -7 0 3 0 8
0 12 0 4 8 8 18 8 9 0 16 6 14 14 -2 11 0 12 11 3 8 -7 18 -8 23 -4z m-9887
-101 c0 -9 -2 -8 -6 1 -2 6 -10 9 -15 6 -7 -4 -8 -2 -4 5 9 13 26 5 25 -12z
m631 -473 c0 -8 -4 -14 -8 -14 -4 0 -8 9 -8 19 0 11 4 17 8 15 4 -3 8 -12 8
-20z m8365 -4 c-3 -5 -11 -10 -16 -10 -6 0 -7 5 -4 10 3 6 11 10 16 10 6 0 7
-4 4 -10z m-8191 -618 c3 -5 -1 -9 -9 -9 -8 0 -12 4 -9 9 3 4 7 8 9 8 2 0 6
-4 9 -8z m7946 -252 c-5 -10 -6 -20 -3 -24 3 -3 2 -6 -4 -6 -6 0 -14 7 -17 16
-4 10 -2 13 6 8 7 -5 9 -2 6 8 -4 8 0 15 7 15 10 0 11 -5 5 -17z m-7852 -95
c-3 -3 -9 2 -12 12 -6 14 -5 15 5 6 7 -7 10 -15 7 -18z m7822 11 c0 -2 -7 -7
-16 -10 -8 -3 -12 -2 -9 4 6 10 25 14 25 6z m-1322 -79 c8 -10 6 -13 -9 -14
-19 -2 -25 8 -12 20 8 9 9 9 21 -6z m-5691 -31 c0 -15 -21 -16 -34 -1 -4 4 -3
5 4 1 6 -3 14 -2 18 4 8 14 12 13 12 -4z m6283 -4 c0 -13 -12 -22 -22 -16 -10
6 -1 24 13 24 5 0 9 -4 9 -8z m100 -2 c5 8 10 10 10 4 0 -6 -7 -17 -15 -24 -8
-7 -15 -10 -15 -7 0 3 -3 14 -6 24 -5 15 -4 16 5 3 10 -13 12 -13 21 0z
m-7143 -42 c-3 -8 -6 -5 -6 6 -1 11 2 17 5 13 3 -3 4 -12 1 -19z m7478 4 c-3
-3 -11 0 -18 7 -9 10 -8 11 6 5 10 -3 15 -9 12 -12z m165 7 c0 -4 -6 -9 -13
-12 -8 -3 -14 0 -14 7 0 7 6 13 14 13 7 0 13 -4 13 -8z m-3925 -448 c3 -5 2
-12 -3 -15 -5 -3 -9 1 -9 9 0 17 3 19 12 6z m-1715 -31 c0 -5 -5 -10 -11 -10
-5 0 -7 5 -4 10 3 6 8 10 11 10 2 0 4 -4 4 -10z m3705 -20 c-3 -5 -12 -10 -18
-10 -7 0 -6 4 3 10 19 12 23 12 15 0z m-1505 -50 c0 -5 -5 -10 -11 -10 -5 0
-7 5 -4 10 3 6 8 10 11 10 2 0 4 -4 4 -10z m285 -140 c-3 -5 -1 -10 4 -10 6 0
11 -5 11 -11 0 -8 -5 -8 -15 1 -13 11 -12 30 1 30 3 0 2 -4 -1 -10z m1060 0
c3 -6 -1 -7 -9 -4 -18 7 -21 14 -7 14 6 0 13 -4 16 -10z m-3305 -56 c0 -8 -19
-13 -24 -6 -3 5 1 9 9 9 8 0 15 -2 15 -3z m2375 -4 c-6 -9 8 -14 28 -11 5 1 6
-3 2 -9 -4 -7 -12 -7 -26 0 -17 9 -19 30 -3 30 3 0 2 -4 -1 -10z m-1644 -73
c-10 -9 -11 -8 -5 6 3 10 9 15 12 12 3 -3 0 -11 -7 -18z m1782 -10 c-3 -4 -6
-7 -7 -5 -1 2 -8 12 -16 22 -14 18 -14 18 7 6 12 -8 19 -18 16 -23z m-2432
-12 c11 6 11 5 2 -5 -12 -14 -33 -6 -33 13 0 8 3 7 9 -2 5 -8 14 -10 22 -6z
m3050 -38 c-6 -8 -7 -18 -3 -22 4 -5 1 -5 -6 -1 -10 6 -10 11 -1 22 6 8 14 14
16 14 3 0 0 -6 -6 -13z m-254 -129 c-3 -8 -6 -5 -6 6 -1 11 2 17 5 13 3 -3 4
-12 1 -19z"/>
<path d="M12964 17702 c3 -5 0 -13 -6 -15 -9 -4 -10 -6 -1 -6 17 -1 25 16 12
25 -7 4 -9 3 -5 -4z"/>
<path d="M13202 17601 c-11 -7 -11 -9 0 -14 9 -3 15 1 15 9 0 8 -1 14 -1 14
-1 0 -7 -4 -14 -9z"/>
<path d="M13529 17343 c-13 -16 -12 -17 4 -4 9 7 17 15 17 17 0 8 -8 3 -21
-13z"/>
<path d="M12340 17209 c0 -5 5 -7 10 -4 6 3 10 8 10 11 0 2 -4 4 -10 4 -5 0
-10 -5 -10 -11z"/>
<path d="M13700 17206 c0 -3 14 -12 30 -21 17 -9 30 -13 30 -11 0 3 -13 12
-30 21 -16 9 -30 13 -30 11z"/>
<path d="M15610 17180 c-8 -5 -12 -12 -9 -15 4 -3 12 1 19 10 14 17 11 19 -10
5z"/>
<path d="M10270 17126 c0 -2 8 -10 18 -17 15 -13 16 -12 3 4 -13 16 -21 21
-21 13z"/>
<path d="M10801 17094 c-1 -6 5 -17 12 -23 10 -8 14 -7 14 4 0 8 -4 12 -8 9
-4 -2 -10 2 -12 8 -4 8 -6 9 -6 2z"/>
<path d="M10250 17061 c0 -6 4 -13 10 -16 6 -3 7 1 4 9 -7 18 -14 21 -14 7z"/>
<path d="M11200 16991 c0 -7 -5 -9 -12 -5 -7 5 -8 3 -3 -5 5 -9 10 -10 18 -2
6 6 8 14 4 18 -4 3 -7 1 -7 -6z"/>
<path d="M14065 16940 c-3 -6 1 -7 9 -4 18 7 21 14 7 14 -6 0 -13 -4 -16 -10z"/>
<path d="M11640 16866 c0 -2 7 -9 15 -16 13 -11 14 -10 9 4 -5 14 -24 23 -24
12z"/>
<path d="M11757 16837 c-3 -8 1 -14 8 -14 7 0 11 6 8 14 -3 7 -6 13 -8 13 -2
0 -5 -6 -8 -13z"/>
<path d="M16038 16573 c7 -3 16 -2 19 1 4 3 -2 6 -13 5 -11 0 -14 -3 -6 -6z"/>
<path d="M16220 16225 c0 -2 6 -8 13 -14 10 -8 14 -7 14 2 0 8 -6 14 -14 14
-7 0 -13 -1 -13 -2z"/>
<path d="M16260 16162 c0 -7 5 -12 11 -12 5 0 8 -4 4 -9 -3 -5 -1 -12 4 -15
13 -8 7 22 -7 36 -9 9 -12 9 -12 0z"/>
<path d="M9630 15926 c0 -2 7 -7 16 -10 8 -3 12 -2 9 4 -6 10 -25 14 -25 6z"/>
<path d="M16390 15916 c0 -2 7 -7 16 -10 8 -3 12 -2 9 4 -6 10 -25 14 -25 6z"/>
<path d="M8301 15724 c0 -11 3 -14 6 -6 3 7 2 16 -1 19 -3 4 -6 -2 -5 -13z"/>
<path d="M17907 15687 c-3 -7 5 -12 19 -12 29 0 29 1 5 14 -14 8 -20 7 -24 -2z"/>
<path d="M17940 15180 c0 -5 5 -10 11 -10 5 0 7 5 4 10 -3 6 -8 10 -11 10 -2
0 -4 -4 -4 -10z"/>
<path d="M8086 15146 c6 -15 4 -17 -6 -11 -9 6 -11 4 -5 -4 5 -9 10 -10 18 -2
8 8 7 14 -2 24 -10 10 -11 8 -5 -7z"/>
<path d="M8067 15019 c7 -7 15 -10 18 -7 3 3 -2 9 -12 12 -14 6 -15 5 -6 -5z"/>
<path d="M17956 15001 c-3 -5 0 -11 7 -14 8 -3 14 1 14 9 0 16 -13 19 -21 5z"/>
<path d="M8076 14966 c6 -15 4 -17 -6 -11 -9 6 -11 4 -5 -4 5 -9 10 -10 18 -2
8 8 7 14 -2 24 -10 10 -11 8 -5 -7z"/>
<path d="M8067 14916 c-4 -10 -3 -15 3 -11 6 3 10 1 10 -6 0 -7 3 -10 6 -6 3
3 2 13 -4 22 -8 16 -9 16 -15 1z"/>
<path d="M8068 14823 c7 -3 16 -2 19 1 4 3 -2 6 -13 5 -11 0 -14 -3 -6 -6z"/>
<path d="M17970 14661 c0 -6 4 -12 8 -15 5 -3 9 1 9 9 0 8 -4 15 -9 15 -4 0
-8 -4 -8 -9z"/>
<path d="M17986 14262 c-2 -4 11 -20 30 -35 19 -16 34 -24 34 -20 0 4 -13 17
-30 28 -20 13 -25 22 -17 27 9 6 9 8 0 8 -6 0 -14 -4 -17 -8z"/>
<path d="M7986 14208 c3 -5 10 -6 15 -3 13 9 11 12 -6 12 -8 0 -12 -4 -9 -9z"/>
<path d="M18626 13858 c3 -5 10 -6 15 -3 13 9 11 12 -6 12 -8 0 -12 -4 -9 -9z"/>
<path d="M18746 13791 c-4 -5 -2 -12 3 -15 5 -4 12 -2 15 3 4 5 2 12 -3 15 -5
4 -12 2 -15 -3z"/>
<path d="M18805 13760 c-3 -6 1 -7 9 -4 18 7 21 14 7 14 -6 0 -13 -4 -16 -10z"/>
<path d="M18895 13700 c3 -5 8 -10 11 -10 2 0 4 5 4 10 0 6 -5 10 -11 10 -5 0
-7 -4 -4 -10z"/>
<path d="M18963 13656 c0 -7 6 -13 14 -13 7 0 13 4 13 8 0 4 -6 9 -13 12 -8 3
-14 0 -14 -7z"/>
<path d="M6995 13620 c3 -5 8 -10 11 -10 2 0 4 5 4 10 0 6 -5 10 -11 10 -5 0
-7 -4 -4 -10z"/>
<path d="M6960 13601 c-8 -6 -18 -7 -22 -5 -4 3 -5 -2 -1 -11 3 -9 9 -13 12
-7 3 5 15 14 26 20 11 6 16 11 10 12 -5 0 -17 -4 -25 -9z"/>
<path d="M6913 13575 c0 -8 4 -12 9 -9 5 3 6 10 3 15 -9 13 -12 11 -12 -6z"/>
<path d="M6885 13560 c6 -9 -8 -14 -28 -11 -5 1 -6 -3 -2 -9 4 -7 12 -7 26 0
17 9 19 30 3 30 -3 0 -2 -4 1 -10z"/>
<path d="M19245 13499 c-4 -6 -5 -12 -2 -15 2 -3 7 2 10 11 7 17 1 20 -8 4z"/>
<path d="M6810 13280 c0 -5 5 -10 11 -10 5 0 7 5 4 10 -3 6 -8 10 -11 10 -2 0
-4 -4 -4 -10z"/>
<path d="M6830 13246 c0 -2 7 -7 16 -10 8 -3 12 -2 9 4 -6 10 -25 14 -25 6z"/>
<path d="M18955 12660 c-3 -5 -1 -10 4 -10 6 0 11 5 11 10 0 6 -2 10 -4 10 -3
0 -8 -4 -11 -10z"/>
<path d="M7100 12611 c13 -10 13 -12 0 -22 -13 -9 -13 -10 0 -6 8 2 15 10 15
17 0 7 -7 15 -15 17 -13 4 -13 3 0 -6z"/>
<path d="M18935 12590 c-10 -11 -16 -22 -14 -24 2 -2 12 7 22 20 22 29 17 32
-8 4z"/>
<path d="M7190 12383 c0 -6 8 -17 18 -24 16 -13 16 -13 2 6 -8 11 -16 22 -17
24 -2 2 -3 0 -3 -6z"/>
<path d="M18830 12339 c0 -5 5 -7 10 -4 6 3 10 8 10 11 0 2 -4 4 -10 4 -5 0
-10 -5 -10 -11z"/>
<path d="M18754 12122 c3 -5 0 -13 -6 -15 -9 -4 -10 -6 -1 -6 17 -1 25 16 12
25 -7 4 -9 3 -5 -4z"/>
<path d="M7176 11941 c-4 -5 -2 -12 3 -15 5 -4 12 -2 15 3 4 5 2 12 -3 15 -5
4 -12 2 -15 -3z"/>
<path d="M18963 11803 c4 -6 2 -13 -5 -15 -8 -3 -6 -7 5 -11 23 -9 30 8 10 24
-9 8 -14 9 -10 2z"/>
<path d="M19065 11630 c10 -11 20 -18 23 -16 5 6 -23 36 -34 36 -4 0 1 -9 11
-20z"/>
<path d="M19121 11553 c6 -7 17 -13 23 -12 7 0 6 2 -2 6 -6 2 -10 8 -8 12 3 4
-1 8 -9 8 -11 0 -12 -4 -4 -14z"/>
<path d="M6796 11399 c2 -4 -4 -12 -13 -18 -10 -6 -13 -11 -7 -11 6 0 18 8 27
18 14 15 15 19 2 19 -8 0 -12 -4 -9 -8z"/>
<path d="M19505 11039 c-4 -6 -5 -12 -2 -15 2 -3 7 2 10 11 7 17 1 20 -8 4z"/>
<path d="M19511 11011 c-8 -5 -9 -11 -3 -15 5 -3 12 1 16 9 6 17 6 18 -13 6z"/>
<path d="M19568 10903 c7 -3 16 -2 19 1 4 3 -2 6 -13 5 -11 0 -14 -3 -6 -6z"/>
<path d="M6834 10549 c-4 -7 -3 -9 4 -5 5 3 12 0 15 -6 2 -7 7 -10 11 -7 4 3
0 12 -8 18 -11 9 -16 9 -22 0z"/>
<path d="M7020 10370 c-9 -6 -10 -10 -3 -10 6 0 15 5 18 10 8 12 4 12 -15 0z"/>
<path d="M18975 10350 c-10 -11 -13 -20 -7 -20 6 0 16 9 22 20 6 11 9 20 7 20
-2 0 -12 -9 -22 -20z"/>
<path d="M18865 10240 c-3 -6 1 -7 9 -4 18 7 21 14 7 14 -6 0 -13 -4 -16 -10z"/>
<path d="M7375 10040 c-3 -5 -1 -10 4 -10 6 0 11 5 11 10 0 6 -2 10 -4 10 -3
0 -8 -4 -11 -10z"/>
<path d="M7545 9901 c-3 -5 -2 -12 3 -15 5 -3 9 1 9 9 0 17 -3 19 -12 6z"/>
<path d="M18550 9481 c0 -6 4 -12 8 -15 5 -3 9 1 9 9 0 8 -4 15 -9 15 -4 0 -8
-4 -8 -9z"/>
<path d="M18550 9441 c0 -6 4 -12 8 -15 5 -3 9 1 9 9 0 8 -4 15 -9 15 -4 0 -8
-4 -8 -9z"/>
<path d="M18588 9273 c7 -3 16 -2 19 1 4 3 -2 6 -13 5 -11 0 -14 -3 -6 -6z"/>
<path d="M18651 9012 c-7 -13 -6 -19 2 -19 7 0 13 9 13 19 0 10 -1 18 -3 18
-1 0 -7 -8 -12 -18z"/>
<path d="M7970 8220 c0 -5 5 -10 11 -10 5 0 7 5 4 10 -3 6 -8 10 -11 10 -2 0
-4 -4 -4 -10z"/>
<path d="M8150 8159 c0 -5 5 -7 10 -4 6 3 10 8 10 11 0 2 -4 4 -10 4 -5 0 -10
-5 -10 -11z"/>
<path d="M17735 8109 c-4 -6 -4 -13 -1 -16 3 -4 6 -1 6 6 0 7 5 9 12 5 7 -4 8
-3 4 4 -9 15 -13 15 -21 1z"/>
<path d="M8536 8022 c-3 -5 1 -9 9 -9 8 0 12 4 9 9 -3 4 -7 8 -9 8 -2 0 -6 -4
-9 -8z"/>
<path d="M17393 7983 c0 -9 4 -10 14 -2 7 6 13 12 13 14 0 1 -6 2 -13 2 -8 0
-14 -6 -14 -14z"/>
<path d="M8797 7719 c7 -7 15 -10 18 -7 3 3 -2 9 -12 12 -14 6 -15 5 -6 -5z"/>
<path d="M17155 7429 c-4 -6 -5 -12 -2 -15 2 -3 7 2 10 11 7 17 1 20 -8 4z"/>
<path d="M8894 7409 c-4 -7 -3 -9 4 -5 5 3 13 0 15 -6 4 -9 6 -10 6 -1 1 17
-16 25 -25 12z"/>
<path d="M17135 7380 c3 -5 8 -10 11 -10 2 0 4 5 4 10 0 6 -5 10 -11 10 -5 0
-7 -4 -4 -10z"/>
<path d="M8904 7318 c-4 -7 -4 -10 1 -6 4 4 14 3 22 -4 11 -8 12 -7 7 6 -7 19
-20 21 -30 4z"/>
<path d="M8946 7198 c3 -5 10 -6 15 -3 13 9 11 12 -6 12 -8 0 -12 -4 -9 -9z"/>
<path d="M17027 7035 c-4 -8 -1 -17 6 -21 7 -4 9 -4 5 1 -4 4 -3 14 3 22 7 8
8 13 1 13 -5 0 -12 -7 -15 -15z"/>
<path d="M9107 6653 c-10 -9 -9 -23 1 -23 5 0 9 7 9 15 0 17 -1 18 -10 8z"/>
<path d="M15365 6640 c-3 -5 -1 -10 4 -10 6 0 11 5 11 10 0 6 -2 10 -4 10 -3
0 -8 -4 -11 -10z"/>
<path d="M15499 6624 c-8 -10 -8 -14 0 -14 6 0 11 5 11 11 0 6 7 9 15 6 8 -4
16 -3 19 1 9 14 -33 11 -45 -4z"/>
<path d="M10475 6619 c-4 -6 -5 -12 -2 -15 2 -3 7 2 10 11 7 17 1 20 -8 4z"/>
<path d="M15661 6604 c0 -11 3 -14 6 -6 3 7 2 16 -1 19 -3 4 -6 -2 -5 -13z"/>
<path d="M10030 6602 c0 -5 7 -9 15 -9 8 0 12 4 9 9 -3 4 -9 8 -15 8 -5 0 -9
-4 -9 -8z"/>
<path d="M16685 6571 c-3 -5 -1 -12 5 -16 5 -3 10 1 10 9 0 18 -6 21 -15 7z"/>
<path d="M9466 6558 c3 -5 10 -6 15 -3 13 9 11 12 -6 12 -8 0 -12 -4 -9 -9z"/>
<path d="M12766 6051 c-4 -5 -2 -12 3 -15 5 -4 12 -2 15 3 4 5 2 12 -3 15 -5
4 -12 2 -15 -3z"/>
<path d="M11238 5977 c12 -13 19 -27 15 -32 -5 -4 -2 -5 4 -1 15 8 -2 42 -27
51 -8 4 -5 -4 8 -18z"/>
<path d="M12556 5945 c-3 -8 -1 -15 4 -15 6 0 10 7 10 15 0 8 -2 15 -4 15 -2
0 -6 -7 -10 -15z"/>
<path d="M12266 5805 c-11 -8 -15 -15 -9 -15 7 0 15 5 18 10 4 6 11 7 17 4 7
-4 8 -2 4 4 -9 14 -7 15 -30 -3z"/>
<path d="M14010 5680 c6 -11 13 -20 16 -20 2 0 0 9 -6 20 -6 11 -13 20 -16 20
-2 0 0 -9 6 -20z"/>
<path d="M14159 5603 c-12 -16 -12 -17 2 -6 9 7 20 9 24 5 5 -4 5 -1 1 6 -9
16 -11 15 -27 -5z"/>
</g>
</svg>
